<svg width="203" height="237" viewBox="0 0 203 237" fill="none" xmlns="http://www.w3.org/2000/svg">
<path d="M31.84 218.56C31.84 219.52 31.6533 220.167 31.28 220.5C30.9067 220.833 30.2333 221 29.26 221H22.88C21.8267 221 21.1333 220.813 20.8 220.44C20.4667 220.067 20.3 219.347 20.3 218.28L22.42 217.84V219.06H29.72V216.7H23.28C22.3067 216.7 21.6333 216.533 21.26 216.2C20.9 215.867 20.72 215.22 20.72 214.26V213.12C20.72 212.16 20.9 211.513 21.26 211.18C21.6333 210.847 22.3067 210.68 23.28 210.68H29.14C30.1267 210.68 30.8 210.853 31.16 211.2C31.52 211.533 31.7 212.187 31.7 213.16L29.58 213.66V212.48H22.82V214.7H29.26C30.2333 214.7 30.9067 214.867 31.28 215.2C31.6533 215.533 31.84 216.18 31.84 217.14V218.56ZM47.8719 218.56C47.8719 219.52 47.6852 220.167 47.3119 220.5C46.9519 220.833 46.2852 221 45.3119 221H39.1519C38.1785 221 37.5052 220.833 37.1319 220.5C36.7719 220.167 36.5919 219.52 36.5919 218.56V213.12C36.5919 212.16 36.7719 211.513 37.1319 211.18C37.5052 210.847 38.1785 210.68 39.1519 210.68H45.3119C46.5385 210.68 47.2985 210.967 47.5919 211.54C47.7785 211.873 47.8719 212.727 47.8719 214.1L45.4719 214.48V212.52H38.9919V219.06H45.4719V216.84L47.8719 217.34V218.56ZM65.1475 221H62.7275V216.56H55.2275V221H52.8275V210.68H55.2275V214.68H62.7275V210.68H65.1475V221ZM82.9252 218.56C82.9252 219.52 82.7385 220.167 82.3652 220.5C82.0052 220.833 81.3385 221 80.3652 221H72.7652C71.7918 221 71.1185 220.833 70.7452 220.5C70.3852 220.167 70.2052 219.52 70.2052 218.56V213.12C70.2052 212.16 70.3852 211.513 70.7452 211.18C71.1185 210.847 71.7918 210.68 72.7652 210.68H80.3652C81.3385 210.68 82.0052 210.847 82.3652 211.18C82.7385 211.513 82.9252 212.16 82.9252 213.12V218.56ZM80.5252 219.06V212.52H72.6052V219.06H80.5252ZM100.484 218.56C100.484 219.52 100.297 220.167 99.9238 220.5C99.5638 220.833 98.8971 221 97.9238 221H90.3238C89.3504 221 88.6771 220.833 88.3038 220.5C87.9438 220.167 87.7638 219.52 87.7638 218.56V213.12C87.7638 212.16 87.9438 211.513 88.3038 211.18C88.6771 210.847 89.3504 210.68 90.3238 210.68H97.9238C98.8971 210.68 99.5638 210.847 99.9238 211.18C100.297 211.513 100.484 212.16 100.484 213.12V218.56ZM98.0838 219.06V212.52H90.1638V219.06H98.0838ZM115.682 221H105.542V210.68H107.942V219.06H115.682V221ZM146.05 218.56C146.05 219.52 145.863 220.167 145.49 220.5C145.13 220.833 144.463 221 143.49 221H135.89C134.917 221 134.243 220.833 133.87 220.5C133.51 220.167 133.33 219.52 133.33 218.56V213.12C133.33 212.16 133.51 211.513 133.87 211.18C134.243 210.847 134.917 210.68 135.89 210.68H143.49C144.463 210.68 145.13 210.847 145.49 211.18C145.863 211.513 146.05 212.16 146.05 213.12V218.56ZM143.65 219.06V212.52H135.73V219.06H143.65ZM163.229 221H161.589L154.009 214.62C153.689 214.353 153.402 214.073 153.149 213.78C153.215 214.447 153.249 214.973 153.249 215.36V221H151.089V210.68H152.729L159.989 216.76C160.509 217.2 160.902 217.573 161.169 217.88C161.102 216.92 161.069 216.327 161.069 216.1V210.68H163.229V221Z" fill="white"/>
<path d="M130.975 221H127.715L123.935 217L120.455 221H117.615L122.515 215.7L117.535 210.68H120.715L124.015 214.18L127.155 210.68H129.915L125.415 215.42L130.975 221Z" fill="#F94F02"/>
<path d="M178 217C178 219.209 176.209 221 174 221C171.791 221 170 219.209 170 217C170 214.791 171.791 213 174 213C176.209 213 178 214.791 178 217Z" fill="#E6B239"/>
<path d="M73.5888 115.992C73.8885 114.599 70.1922 110.529 59.403 100.462C11.1515 55.9074 4.75787 49.6954 2.36028 44.4474C-0.836511 37.7 -0.736612 26.0258 2.36028 18.2074C4.85777 11.8883 11.5511 5.0338 17.8447 2.14204C22.2403 0.107102 25.3372 0 107.255 0C187.874 0 192.07 0.107102 191.071 1.92784C190.471 2.89176 185.776 9.7463 180.681 17.1364L171.391 30.5241L101.361 31.0596L31.2313 31.5952L57.2052 56.6571C71.4909 70.3662 82.9793 81.9332 82.7795 82.3616C81.9803 83.6468 76.1862 107.959 76.1862 109.887C76.1862 111.601 76.2861 111.601 78.0843 109.887C79.9824 108.066 79.9823 108.066 79.6827 109.994C78.1842 117.705 78.1842 117.812 75.5868 117.812C73.6887 117.812 73.1892 117.384 73.5888 115.992Z" fill="#E6B239"/>
<path d="M128.592 88.8208C128.292 90.2131 131.988 94.283 142.777 104.351C191.029 148.905 197.422 155.117 199.82 160.365C203.017 167.113 202.917 178.787 199.82 186.605C197.323 192.924 190.629 199.779 184.336 202.67C179.94 204.705 176.843 204.812 94.9253 204.812C14.3063 204.812 10.1105 204.705 11.1095 202.885C11.7089 201.921 16.4042 195.066 21.499 187.676L30.7897 174.288L100.819 173.753L170.949 173.217L144.975 148.155C130.689 134.446 119.201 122.879 119.401 122.451C120.2 121.166 125.994 96.8535 125.994 94.9256C125.994 93.212 125.894 93.212 124.096 94.9256C122.198 96.7464 122.198 96.7464 122.498 94.8185C123.996 87.1072 123.996 87.0001 126.594 87.0001C128.492 87.0001 128.991 87.4285 128.592 88.8208Z" fill="#E6B239"/>
<path d="M51.9478 140.839C51.9478 140.518 55.8439 135.27 60.739 129.058C65.5342 122.953 71.9278 114.706 74.9248 110.744C77.9218 106.781 82.0177 101.533 84.0156 99.1766C86.0136 96.7133 93.3063 87.2883 100.399 78.1846C107.392 69.0809 114.785 59.763 116.783 57.5139L120.279 53.5511H139.06C156.243 53.5511 160.039 54.0866 156.843 56.2287C156.343 56.55 152.647 61.0483 148.651 66.1892C144.655 71.3301 140.958 76.0426 140.359 76.6852C139.86 77.3278 138.161 79.4698 136.663 81.5048C135.264 83.5397 129.67 90.7156 124.375 97.463C119.08 104.21 109.29 116.849 102.597 125.524L90.4092 141.268L71.2285 141.375C60.6391 141.375 51.9478 141.161 51.9478 140.839Z" fill="#F94F02"/>
</svg>
