<svg width="220" height="75" viewBox="0 0 220 75" fill="none" xmlns="http://www.w3.org/2000/svg">
<path fill-rule="evenodd" clip-rule="evenodd" d="M20.2618 27.2256C20.2618 24.188 22.7243 21.7256 25.7618 21.7256H144.588C147.626 21.7256 150.088 24.188 150.088 27.2256C150.088 30.2632 147.626 32.7256 144.588 32.7256H106.262C103.579 32.7256 101.403 34.9009 101.403 37.5844C101.403 40.2678 103.579 42.4431 106.262 42.4431H157.287C160.325 42.4431 162.787 44.9056 162.787 47.9431C162.787 50.9807 160.325 53.4431 157.287 53.4431H38.4606C35.4231 53.4431 32.9606 50.9807 32.9606 47.9431C32.9606 44.9056 35.4231 42.4431 38.4606 42.4431H77.0707C79.7541 42.4431 81.9294 40.2678 81.9294 37.5844C81.9294 34.9009 79.7541 32.7256 77.0707 32.7256H25.7618C22.7243 32.7256 20.2618 30.2632 20.2618 27.2256Z" fill="#ECF3FB"/>
<rect x="0.906555" y="21.7256" width="14.0766" height="14.0766" rx="7.03829" fill="#ECF3FB"/>
<rect x="64.2511" y="0.61084" width="7.03829" height="7.03829" rx="3.51914" fill="#ECF3FB"/>
<rect x="162.787" y="12.9277" width="3.51914" height="3.51914" rx="1.75957" fill="#ECF3FB"/>
<rect x="215.574" y="32.2832" width="3.51914" height="3.51914" rx="1.75957" fill="#ECF3FB"/>
<line x1="180.357" y1="30.7699" x2="186.467" y2="37.0995" stroke="#ECF3FB"/>
<line x1="186.692" y1="30.0723" x2="180.098" y2="36.593" stroke="#ECF3FB"/>
<rect x="94.7879" y="4.74705" width="46.1877" height="58.6589" transform="rotate(15.7865 94.7879 4.74705)" fill="#F7F8F9" stroke="black"/>
<mask id="path-9-inside-1_452_15347" fill="white">
<path d="M85.4376 9.42334H132.625V46.1624H85.4376V9.42334Z"/>
</mask>
<path d="M85.4376 9.42334H132.625V46.1624H85.4376V9.42334Z" fill="#0484C3"/>
<path d="M85.4376 9.42334V8.42334H84.4376V9.42334H85.4376ZM132.625 9.42334H133.625V8.42334H132.625V9.42334ZM85.4376 10.4233H132.625V8.42334H85.4376V10.4233ZM131.625 9.42334V46.1624H133.625V9.42334H131.625ZM86.4376 46.1624V9.42334H84.4376V46.1624H86.4376Z" fill="black" mask="url(#path-9-inside-1_452_15347)"/>
<rect x="85.9376" y="46.6626" width="46.1877" height="21.9198" fill="#FEC445" stroke="black"/>
<path d="M106.324 35.3264L105.184 32.1864H98.8835L97.7435 35.3264H95.7635L100.984 21.3264H103.084L108.304 35.3264H106.324ZM99.5235 30.4464H104.544L102.024 23.5464L99.5235 30.4464Z" fill="white"/>
<path d="M118.642 27.3369H119.947V34.8369H118.642V33.5469C117.992 34.5369 117.047 35.0319 115.807 35.0319C114.757 35.0319 113.862 34.6519 113.122 33.8919C112.382 33.1219 112.012 32.1869 112.012 31.0869C112.012 29.9869 112.382 29.0569 113.122 28.2969C113.862 27.5269 114.757 27.1419 115.807 27.1419C117.047 27.1419 117.992 27.6369 118.642 28.6269V27.3369ZM115.972 33.7719C116.732 33.7719 117.367 33.5169 117.877 33.0069C118.387 32.4869 118.642 31.8469 118.642 31.0869C118.642 30.3269 118.387 29.6919 117.877 29.1819C117.367 28.6619 116.732 28.4019 115.972 28.4019C115.222 28.4019 114.592 28.6619 114.082 29.1819C113.572 29.6919 113.317 30.3269 113.317 31.0869C113.317 31.8469 113.572 32.4869 114.082 33.0069C114.592 33.5169 115.222 33.7719 115.972 33.7719Z" fill="white"/>
<path d="M95.5293 55.3433H112.239" stroke="black"/>
<path d="M105.824 59.9009H122.533" stroke="black"/>
<path d="M114.178 55.3433H122.533" stroke="black"/>
<path d="M95.5565 59.9009H103.911" stroke="black"/>
</svg>
