<svg width="31" height="31" viewBox="0 0 31 31" fill="none" xmlns="http://www.w3.org/2000/svg">
<g clip-path="url(#clip0_1327_21482)">
<path d="M7.55273 11.5C7.55273 6.80555 11.3583 2.99997 16.0527 2.99997C20.7472 2.99997 24.5527 6.80555 24.5527 11.5V19.8076C24.5527 24.502 20.7472 28.3076 16.0527 28.3076C11.3583 28.3076 7.55273 24.502 7.55273 19.8076V11.5Z" fill="#82A9CD"/>
<path d="M12.1609 11.5451C12.1609 9.39879 13.9068 7.65289 16.0531 7.65289C18.1993 7.65289 19.9453 9.39879 19.9453 11.5451V21.6578C19.9453 22.6235 19.16 23.4085 18.1949 23.4085C17.2293 23.4085 16.4442 22.6233 16.4442 21.6578V19.65H15.5434V21.6578C15.5434 23.1201 16.7328 24.3096 18.1951 24.3096C19.657 24.3096 20.8465 23.1201 20.8465 21.6578L20.8463 11.5451C20.8463 8.90216 18.696 6.75183 16.053 6.75183C13.4101 6.75183 11.2598 8.9021 11.2598 11.5451V19.4945H12.1606L12.1609 11.5451Z" fill="#33608A"/>
<path d="M10.0182 11.5451C10.0182 9.49289 11.0506 7.5984 12.7799 6.47735L12.2898 5.72159C10.3033 7.00918 9.11719 9.18618 9.11719 11.5449V19.4937H10.018L10.0182 11.5451Z" fill="#33608A"/>
<path d="M22.9872 18.1051V11.5451C22.9872 7.72155 19.8763 4.6105 16.0521 4.6105C15.7142 4.6105 15.3734 4.63514 15.0391 4.6844L15.1694 5.57554C15.4605 5.5328 15.758 5.51133 16.0523 5.51133C19.3797 5.51133 22.0863 8.21806 22.0863 11.5448V18.1048L22.9872 18.1051Z" fill="#33608A"/>
<path d="M18.1928 26.4512C20.8362 26.4512 22.9865 24.3009 22.9865 21.6579V20.8792H22.0856V21.6579C22.0856 23.8042 20.3391 25.5501 18.193 25.5501C16.0471 25.5501 14.3012 23.8042 14.3012 21.6579H13.4004C13.4 24.3008 15.5499 26.4512 18.1928 26.4512H18.1928Z" fill="#33608A"/>
<path d="M7.25977 19.4939H8.16061L8.16082 11.5451C8.16082 7.19436 11.7008 3.65443 16.0515 3.65443C16.4464 3.65443 16.8445 3.68432 17.234 3.74327L17.3685 2.85213C16.9348 2.78707 16.4913 2.7536 16.0514 2.7536C11.2037 2.7536 7.2602 6.69737 7.2602 11.5448L7.25977 19.4939Z" fill="#33608A"/>
<path d="M24.8438 21.6578V11.5451C24.8438 10.6775 24.7171 9.82027 24.4672 8.99628L23.6049 9.25754C23.8293 9.99648 23.9428 10.7664 23.9428 11.5451V21.6578C23.9428 24.8276 21.3637 27.4067 18.1934 27.4067V28.3075C21.8603 28.3075 24.8439 25.3246 24.8439 21.6575L24.8438 21.6578Z" fill="#33608A"/>
<path d="M18.7035 21.6578V11.5451C18.7035 10.0832 17.514 8.89377 16.0517 8.89377C14.5898 8.89377 13.4004 10.0832 13.4004 11.5451V18.0668H14.3012L14.3014 11.5451C14.3014 10.5801 15.0867 9.79477 16.0518 9.79477C17.0174 9.79477 17.8025 10.58 17.8025 11.5451V21.6578H18.7035Z" fill="#33608A"/>
<path d="M11.2598 20.9221H12.1606V23.8594H11.2598V20.9221Z" fill="#33608A"/>
<path d="M30.5791 0.890686H23.582V1.79153H29.678V8.03841H30.5789L30.5791 0.890686Z" fill="#33608A"/>
<path d="M30.5789 23.0229H29.678V29.2698H23.582V30.1707H30.5791L30.5789 23.0229Z" fill="#33608A"/>
<path d="M2.4265 1.79168H8.52248V1.34126V0.890839H1.52539V8.0383H2.42623L2.4265 1.79168Z" fill="#33608A"/>
<path d="M8.52221 29.2698H2.42623V23.0229H1.52539V30.1704H8.52248L8.52221 29.2698Z" fill="#33608A"/>
<path d="M15.6016 13.2411H16.5024V17.8209H15.6016V13.2411Z" fill="#33608A"/>
</g>
<defs>
<clipPath id="clip0_1327_21482">
<rect width="30" height="30" fill="white" transform="translate(0.5 0.888885)"/>
</clipPath>
</defs>
</svg>
