<svg width="31" height="31" viewBox="0 0 31 31" fill="none" xmlns="http://www.w3.org/2000/svg">
<g clip-path="url(#clip0_1327_21408)">
<path d="M11.3891 25.263V27.063C11.3891 27.5403 11.1994 27.9981 10.8619 28.3357C10.5243 28.6733 10.0664 28.863 9.58906 28.863C9.11168 28.863 8.65383 28.6733 8.31627 28.3357C7.97871 27.9981 7.78906 27.5403 7.78906 27.063V25.4011" stroke="#33608A" stroke-width="1.5" stroke-linecap="round" stroke-linejoin="round"/>
<path d="M20.3887 25.263V27.063C20.3887 27.5403 20.5783 27.9981 20.9158 28.3357C21.2534 28.6733 21.7113 28.863 22.1887 28.863C22.666 28.863 23.124 28.6733 23.4615 28.3357C23.7991 27.9981 23.9887 27.5403 23.9887 27.063V25.263" stroke="#33608A" stroke-width="1.5" stroke-linecap="round" stroke-linejoin="round"/>
<path d="M2.38867 12.663V9.06297C2.38867 8.58558 2.57831 8.12773 2.91588 7.79017C3.25344 7.45261 3.71129 7.26297 4.18867 7.26297H5.81993" stroke="#33608A" stroke-width="1.5" stroke-linecap="round" stroke-linejoin="round"/>
<path d="M29.3895 12.663V9.06297C29.3895 8.58558 29.1999 8.12773 28.8623 7.79017C28.5247 7.45261 28.0668 7.26297 27.5895 7.26297H25.9395" stroke="#33608A" stroke-width="1.5" stroke-linecap="round" stroke-linejoin="round"/>
<path d="M23.5758 18H8.42424C7.08537 18 6 17.2652 6 16.3589V3.64098C6 2.73464 7.08537 1.99995 8.42424 1.99995H23.5758C24.9147 1.99995 26 2.73464 26 3.64098V16.3589C26 17.2652 24.9147 18 23.5758 18Z" fill="#82A9CD"/>
<path d="M23.3883 1.86297H8.38828C7.0628 1.86297 5.98828 2.93748 5.98828 4.26297V22.863C5.98828 24.1885 7.0628 25.263 8.38828 25.263H23.3883C24.7138 25.263 25.7883 24.1885 25.7883 22.863V4.26297C25.7883 2.93748 24.7138 1.86297 23.3883 1.86297Z" stroke="#33608A" stroke-width="1.5" stroke-linecap="round" stroke-linejoin="round"/>
<path d="M25.7883 18.063H5.98828" stroke="#33608A" stroke-width="1.5" stroke-linecap="round" stroke-linejoin="round"/>
<path d="M18.5879 21.663H22.1879" stroke="#33608A" stroke-width="1.5" stroke-linecap="round" stroke-linejoin="round"/>
<path d="M9.58789 21.663H13.1879" stroke="#33608A" stroke-width="1.5" stroke-linecap="round" stroke-linejoin="round"/>
<path d="M13.1895 5.46297H18.5895" stroke="#33608A" stroke-width="1.5" stroke-linecap="round" stroke-linejoin="round"/>
</g>
<defs>
<clipPath id="clip0_1327_21408">
<rect width="30" height="30" fill="white" transform="translate(0.888672 0.962967)"/>
</clipPath>
</defs>
</svg>
