<svg width="14" height="15" viewBox="0 0 14 15" fill="none" xmlns="http://www.w3.org/2000/svg">
<path d="M1.16675 2.25H4.66675C5.28559 2.25 5.87908 2.49583 6.31666 2.93342C6.75425 3.371 7.00008 3.96449 7.00008 4.58333V12.75C7.00008 12.2859 6.81571 11.8408 6.48752 11.5126C6.15933 11.1844 5.71421 11 5.25008 11H1.16675V2.25Z" stroke="#56A8F9" stroke-width="1.5" stroke-linecap="round" stroke-linejoin="round"/>
<path d="M12.8333 2.25H9.33333C8.71449 2.25 8.121 2.49583 7.68342 2.93342C7.24583 3.371 7 3.96449 7 4.58333V12.75C7 12.2859 7.18437 11.8408 7.51256 11.5126C7.84075 11.1844 8.28587 11 8.75 11H12.8333V2.25Z" stroke="#56A8F9" stroke-width="1.5" stroke-linecap="round" stroke-linejoin="round"/>
</svg>
