<svg width="32" height="30" viewBox="0 0 32 30" fill="none" xmlns="http://www.w3.org/2000/svg">
<path d="M1.46289 2.89276H10.164C11.7024 2.89276 13.1779 3.50391 14.2657 4.59176C15.3536 5.6796 15.9647 7.15504 15.9647 8.69349V28.9961C15.9647 27.8422 15.5064 26.7356 14.6905 25.9198C13.8746 25.1039 12.768 24.6455 11.6142 24.6455H1.46289V2.89276Z" stroke="#33608A" stroke-width="1.5" stroke-linecap="round" stroke-linejoin="round"/>
<path d="M30.4667 2.8927H21.7656C20.2271 2.8927 18.7517 3.50385 17.6638 4.59169C16.576 5.67954 15.9648 7.15498 15.9648 8.69343V28.996C15.9648 27.8422 16.4232 26.7356 17.2391 25.9197C18.055 25.1038 19.1616 24.6454 20.3154 24.6454H30.4667V2.8927Z" stroke="#33608A" stroke-width="1.5" stroke-linecap="round" stroke-linejoin="round"/>
<path d="M22.3711 1.92963H26.4781V10.8316L24.4246 8.95148L22.3711 10.8316V1.92963Z" fill="#82A9CD"/>
</svg>
