<svg width="32" height="32" viewBox="0 0 32 32" fill="none" xmlns="http://www.w3.org/2000/svg">
<g clip-path="url(#clip0_1327_21369)">
<path d="M25.6163 2.5038L6.38281 2.50386V8.49995H25.6163V2.5038Z" fill="#82A9CD"/>
<path d="M26.5139 0.962963H5.48494C4.98949 0.962963 4.58789 1.36468 4.58789 1.86002V28.4504C4.58789 29.263 5.07295 29.9888 5.82363 30.2997C6.57431 30.6104 7.43048 30.4403 8.005 29.8657C8.25734 29.6133 8.59297 29.4743 8.94987 29.4743C9.30682 29.4743 9.64239 29.6133 9.89473 29.8657C10.6757 30.6466 11.7014 31.037 12.7272 31.037C13.753 31.037 14.7787 30.6466 15.5596 29.8657C15.9099 29.5154 15.9099 28.9474 15.5596 28.597C15.2093 28.2468 14.6413 28.2468 14.2908 28.597C13.4287 29.4591 12.0256 29.4591 11.1634 28.597C9.94284 27.3765 7.95683 27.3764 6.73625 28.5971C6.67105 28.6621 6.59487 28.6772 6.51011 28.642C6.42505 28.6068 6.382 28.5424 6.382 28.4503V9.83194H25.6167V28.4504C25.6167 28.5423 25.5737 28.6068 25.4886 28.6421C25.4035 28.6773 25.3276 28.6623 25.2625 28.597C24.042 27.3766 22.0559 27.3766 20.8353 28.597L20.1248 29.3075C19.7745 29.6579 19.7745 30.2259 20.1248 30.5763C20.4751 30.9265 21.0431 30.9265 21.3935 30.5763L22.104 29.8658C22.3564 29.6135 22.692 29.4744 23.0489 29.4744C23.4059 29.4744 23.7414 29.6135 23.9938 29.8658C24.5684 30.4404 25.4247 30.6107 26.1752 30.2997C26.9258 29.9888 27.4108 29.2628 27.4108 28.4504V1.86002C27.4109 1.36468 27.0094 0.962963 26.5139 0.962963ZM6.382 8.5V2.5H25.6167V8.5H6.382Z" fill="#33608A"/>
<path d="M22.8985 16.9487H17.9342C17.4387 16.9487 17.0371 16.547 17.0371 16.0517C17.0371 15.5563 17.4387 15.1546 17.9342 15.1546H22.8985C23.394 15.1546 23.7956 15.5563 23.7956 16.0517C23.7956 16.547 23.394 16.9487 22.8985 16.9487Z" fill="#33608A"/>
<path d="M22.8985 21.8827H17.9342C17.4387 21.8827 17.0371 21.481 17.0371 20.9857C17.0371 20.4903 17.4387 20.0886 17.9342 20.0886H22.8985C23.394 20.0886 23.7956 20.4903 23.7956 20.9857C23.7956 21.481 23.394 21.8827 22.8985 21.8827Z" fill="#33608A"/>
<path d="M14.3196 18.2005C13.9885 17.9715 13.4292 17.7447 12.6136 17.509V15.2493C12.8727 15.315 13.0681 15.4559 13.2055 15.6738C13.3148 15.8516 13.3821 16.0647 13.4055 16.3073C13.4211 16.4682 13.5564 16.591 13.718 16.591H14.7363C14.821 16.591 14.9021 16.5568 14.9612 16.4961C15.0203 16.4355 15.0524 16.3536 15.0502 16.2689C15.031 15.5283 14.7801 14.9182 14.3043 14.4554C13.8946 14.0571 13.3268 13.8081 12.6136 13.7134V13.2294C12.6136 13.056 12.4731 12.9155 12.2997 12.9155H11.7428C11.5694 12.9155 11.4289 13.056 11.4289 13.2294V13.7104C10.7039 13.7773 10.1172 14.0502 9.68152 14.5236C9.19475 15.0535 8.94799 15.6641 8.94799 16.3382C8.94799 17.0935 9.18624 17.6954 9.65456 18.1258C10.0524 18.4967 10.6485 18.7744 11.4288 18.9529V21.5258C11.062 21.4392 10.8093 21.2637 10.6611 20.9941C10.5825 20.8503 10.4808 20.5536 10.4426 19.9567C10.432 19.7914 10.2949 19.6629 10.1292 19.6629H9.10107C8.92767 19.6629 8.78711 19.8034 8.78711 19.9768C8.78711 20.7152 8.90752 21.2878 9.15428 21.7259C9.57814 22.4873 10.3426 22.9379 11.4288 23.0675V23.8079C11.4288 23.9813 11.5694 24.1218 11.7428 24.1218H12.2996C12.473 24.1218 12.6136 23.9813 12.6136 23.8079V23.0565C13.2317 22.9631 13.7265 22.7986 14.0881 22.5658C14.8614 22.0649 15.2502 21.2305 15.2439 20.0878C15.2439 19.2605 14.933 18.6255 14.3196 18.2005ZM10.627 16.2713C10.627 16.0193 10.7144 15.7786 10.8933 15.5366C11.0051 15.3874 11.1845 15.2862 11.4289 15.2341V17.2238C11.2204 17.1499 11.0452 17.0544 10.9063 16.9389C10.7157 16.7774 10.627 16.5654 10.627 16.2713ZM12.6136 19.2616C12.9068 19.364 13.0689 19.4524 13.1577 19.5153C13.4355 19.7122 13.565 19.9842 13.565 20.3714C13.565 20.6254 13.5126 20.8436 13.4044 21.039C13.2492 21.3212 12.989 21.4959 12.6136 21.5681L12.6136 19.2616Z" fill="#33608A"/>
</g>
<defs>
<clipPath id="clip0_1327_21369">
<rect width="30.0741" height="30.0741" fill="white" transform="translate(0.962891 0.962963)"/>
</clipPath>
</defs>
</svg>
