<svg width="27" height="31" viewBox="0 0 27 31" fill="none" xmlns="http://www.w3.org/2000/svg">
<path d="M24.9519 5.99994H4.86899C3.28449 5.99994 2 6.15492 2 6.34609V14.6538C2 14.845 3.28449 14.9999 4.86899 14.9999H23.9683C25.5528 14.9999 25.8537 13.3738 25.8537 13.1826V6.34609C25.8537 6.15492 26.5364 5.99994 24.9519 5.99994Z" fill="#82A9CD"/>
<path d="M6.66968 23.8499C6.16926 23.8499 5.76367 24.2555 5.76367 24.7559C5.76367 25.2563 6.16926 25.6619 6.66968 25.6619H13.5524C14.0528 25.6619 14.4584 25.2563 14.4584 24.7559C14.4584 24.2555 14.0528 23.8499 13.5524 23.8499H6.66968Z" fill="#33608A"/>
<path d="M24.5364 13.9999H2.46359C1.65521 13.9999 1 14.4476 1 14.9999C1 15.5523 1.65521 15.9999 2.46359 15.9999H24.5364C25.3448 15.9999 26 15.5523 26 14.9999C26 14.4476 25.3444 13.9999 24.5364 13.9999Z" fill="#33608A"/>
<path d="M21.24 20.533C21.24 20.0326 20.8344 19.627 20.334 19.627H6.66968C6.16926 19.627 5.76367 20.0326 5.76367 20.533C5.76367 21.0335 6.16926 21.4391 6.66968 21.4391H20.3334C20.8336 21.4391 21.2403 21.0335 21.2403 20.533H21.24Z" fill="#33608A"/>
<path d="M23.1145 4.58645H9.4238C8.92339 4.58645 8.5178 4.99204 8.5178 5.49246C8.5178 5.99287 8.92339 6.39846 9.4238 6.39846H23.1145C24.086 6.39846 24.8762 7.18355 24.8762 8.15001V27.3884C24.8762 28.3598 24.086 29.15 23.1145 29.15H3.88711C2.9157 29.15 2.12543 28.3598 2.12543 27.3884V8.15059C2.12543 7.18413 2.9157 6.39904 3.88711 6.39904H9.48628V9.44511C9.48628 9.80756 9.19236 10.1015 8.82993 10.1015C8.46749 10.1015 8.17358 9.80755 8.17358 9.44511V8.50494C8.17358 8.00452 7.76799 7.59893 7.26757 7.59893C6.76716 7.59893 6.36157 8.00452 6.36157 8.50494V9.4462C6.36157 10.8081 7.46983 11.9155 8.83085 11.9155C10.1919 11.9155 11.3001 10.8072 11.3001 9.4462L11.3004 4.10883C11.3004 2.37436 9.889 0.962952 8.15447 0.962952C6.41995 0.962952 5.0075 2.37431 5.0075 4.10883V4.587H3.88711C1.91598 4.587 0.3125 6.18669 0.3125 8.15171V27.3883C0.3125 29.3595 1.91621 30.963 3.88711 30.963H23.1145C25.0857 30.963 26.6891 29.3592 26.6891 27.3883V8.15056C26.6891 6.18554 25.0857 4.58645 23.1145 4.58645ZM6.82084 4.10918C6.82084 3.37443 7.4188 2.77623 8.15264 2.77623C8.88739 2.77623 9.48559 3.3742 9.48559 4.10918V4.58735H6.82084V4.10918Z" fill="#33608A"/>
</svg>
