<svg width="115" height="35" viewBox="0 0 115 35" fill="none" xmlns="http://www.w3.org/2000/svg">
<path d="M13.2754 11.5985L14.5332 13.1844L15.2578 14.0594C16.6615 15.7912 17.3633 17.6233 17.3633 19.5555C17.3633 21.4331 16.7435 23.0783 15.5039 24.4911C13.8086 26.4325 11.5892 27.4032 8.8457 27.4032C6.72201 27.4032 4.98112 26.7469 3.62305 25.4344C2.26497 24.1311 1.58594 22.4585 1.58594 20.4169C1.58594 17.9195 2.64323 15.8368 4.75781 14.1688C5.87891 13.2847 6.91341 12.8427 7.86133 12.8427C8.35352 12.8427 8.75456 12.9839 9.06445 13.2665C9.37435 13.549 9.5293 13.9136 9.5293 14.3602C9.5293 14.9618 9.17383 15.4813 8.46289 15.9188L7.36914 16.5887C6.74023 16.9807 6.21615 17.5275 5.79688 18.2294C5.3776 18.9312 5.16797 19.6239 5.16797 20.3075C5.16797 21.3921 5.53255 22.2854 6.26172 22.9872C7 23.6981 7.93424 24.0536 9.06445 24.0536C10.3132 24.0536 11.3978 23.5842 12.3184 22.6454C13.2389 21.7157 13.6992 20.6174 13.6992 19.3505C13.6992 18.5484 13.5124 17.8192 13.1387 17.163C12.765 16.5067 11.9583 15.4904 10.7188 14.1141C9.85286 13.1571 9.23307 12.3186 8.85938 11.5985H5.16797C3.91016 11.5985 3.28125 11.1656 3.28125 10.2997C3.28125 9.67078 3.5 9.1877 3.9375 8.85046C4.38411 8.50411 5.00846 8.33093 5.81055 8.33093H8.14844C8.33073 6.52625 9.1556 5.03601 10.623 3.86023C12.0905 2.67533 13.8496 2.08289 15.9004 2.08289C17.4408 2.08289 18.694 2.50671 19.6602 3.35437C20.6354 4.20203 21.123 5.30033 21.123 6.64929C21.123 8.44486 20.3529 9.82117 18.8125 10.7782C17.9375 11.3251 16.5475 11.5985 14.6426 11.5985H13.2754ZM11.6348 8.33093H14.916C16.7663 8.33093 17.6914 7.79317 17.6914 6.71765C17.6914 6.29838 17.5 5.96114 17.1172 5.70593C16.7435 5.45072 16.2422 5.32312 15.6133 5.32312C14.6289 5.32312 13.7311 5.62846 12.9199 6.23914C12.1178 6.84981 11.6895 7.54708 11.6348 8.33093ZM28.1023 20.9364H24.1374C22.9981 20.9364 22.0684 20.5354 21.3484 19.7333C20.6374 18.9312 20.282 17.8921 20.282 16.6161C20.282 14.9117 20.8698 13.4305 22.0456 12.1727C23.2214 10.9149 24.6023 10.286 26.1882 10.286C27.2637 10.286 28.1387 10.5868 28.8132 11.1884C29.4877 11.7899 29.8249 12.5738 29.8249 13.5399C29.8249 14.2144 29.6563 14.7704 29.3191 15.2079C28.9818 15.6363 28.5489 15.8505 28.0202 15.8505C27.1817 15.8505 26.7624 15.4585 26.7624 14.6747C26.7624 14.5562 26.7624 14.4559 26.7624 14.3739C26.7715 14.2736 26.7761 14.1779 26.7761 14.0868C26.7761 13.4488 26.4616 13.1298 25.8327 13.1298C25.2403 13.1298 24.698 13.4442 24.2058 14.0731C23.7227 14.702 23.4812 15.4038 23.4812 16.1786C23.4812 16.8257 23.6771 17.286 24.0691 17.5594C24.4701 17.8238 25.1446 17.9559 26.0925 17.9559H28.6765C29.834 17.9559 30.4128 18.3615 30.4128 19.1727C30.4128 19.7196 30.2032 20.1525 29.7839 20.4716C29.3738 20.7815 28.8132 20.9364 28.1023 20.9364ZM37.7885 11.0653C38.7455 10.5458 39.534 10.286 40.1537 10.286C41.0287 10.286 41.7442 10.5321 42.3002 11.0243C42.8653 11.5074 43.1479 12.1272 43.1479 12.8837C43.1479 13.3394 43.0385 13.8361 42.8198 14.3739L41.3842 17.9559H42.9565C44.1049 17.9559 44.6791 18.3615 44.6791 19.1727C44.6791 19.7287 44.4741 20.1617 44.0639 20.4716C43.6629 20.7815 43.0978 20.9364 42.3686 20.9364H39.6205C39.0372 20.9364 38.545 20.7723 38.144 20.4442C37.7521 20.107 37.5561 19.6968 37.5561 19.2137C37.5561 18.8856 37.6609 18.4663 37.8705 17.9559L39.1284 14.8661C39.2833 14.4742 39.3608 14.1779 39.3608 13.9774C39.3608 13.4579 39.0144 13.1981 38.3217 13.1981C37.392 13.1981 36.6082 13.9911 35.9702 15.577L34.4389 19.3368C33.9558 20.5308 33.2403 21.1278 32.2924 21.1278C31.9187 21.1278 31.5997 21.0093 31.3354 20.7723C31.0711 20.5354 30.9389 20.2483 30.9389 19.911C30.9389 19.6558 31.0073 19.355 31.144 19.0087L31.2944 18.6395L37.2416 3.9696C37.7612 2.71179 38.4721 2.08289 39.3745 2.08289C39.7482 2.08289 40.0672 2.21049 40.3315 2.4657C40.6049 2.71179 40.7416 3.01257 40.7416 3.36804C40.7416 3.65971 40.6232 4.09265 40.3862 4.66687L37.7885 11.0653ZM51.8224 10.286C53.144 10.286 54.2287 10.7053 55.0763 11.5438C55.9331 12.3824 56.3615 13.4488 56.3615 14.743C56.3615 15.7183 56.1382 16.689 55.6916 17.6552C55.2449 18.6122 54.6662 19.3778 53.9552 19.952C53.4813 20.3257 52.9891 20.5855 52.4787 20.7313C51.9774 20.868 51.271 20.9364 50.3595 20.9364C48.8739 20.9364 47.8713 20.7587 47.3517 20.4032C46.1304 19.5647 45.5197 18.3251 45.5197 16.6844C45.5197 14.9527 46.144 13.4533 47.3927 12.1864C48.6414 10.9195 50.118 10.286 51.8224 10.286ZM51.4943 13.1981C50.8198 13.1981 50.2046 13.5308 49.6486 14.1962C49.0926 14.8615 48.8146 15.5953 48.8146 16.3973C48.8146 17.4546 49.4071 17.9833 50.592 17.9833C51.2847 17.9833 51.8179 17.7691 52.1916 17.3407C52.8114 16.6389 53.1213 15.8368 53.1213 14.9344C53.1213 14.4149 52.9709 13.9956 52.6701 13.6766C52.3693 13.3576 51.9774 13.1981 51.4943 13.1981ZM63.6962 10.286C65.0178 10.286 66.1024 10.7053 66.9501 11.5438C67.8068 12.3824 68.2352 13.4488 68.2352 14.743C68.2352 15.7183 68.0119 16.689 67.5653 17.6552C67.1187 18.6122 66.5399 19.3778 65.829 19.952C65.355 20.3257 64.8628 20.5855 64.3524 20.7313C63.8511 20.868 63.1447 20.9364 62.2333 20.9364C60.7476 20.9364 59.745 20.7587 59.2255 20.4032C58.0041 19.5647 57.3934 18.3251 57.3934 16.6844C57.3934 14.9527 58.0178 13.4533 59.2665 12.1864C60.5152 10.9195 61.9917 10.286 63.6962 10.286ZM63.368 13.1981C62.6936 13.1981 62.0783 13.5308 61.5223 14.1962C60.9664 14.8615 60.6884 15.5953 60.6884 16.3973C60.6884 17.4546 61.2808 17.9833 62.4657 17.9833C63.1584 17.9833 63.6916 17.7691 64.0653 17.3407C64.6851 16.6389 64.995 15.8368 64.995 14.9344C64.995 14.4149 64.8446 13.9956 64.5438 13.6766C64.243 13.3576 63.8511 13.1981 63.368 13.1981ZM72.9039 17.9559H74.3395C75.497 17.9559 76.0758 18.3615 76.0758 19.1727C76.0758 19.7287 75.8707 20.1617 75.4605 20.4716C75.0595 20.7815 74.4944 20.9364 73.7652 20.9364H71.3043C70.6298 20.9364 70.0966 20.7769 69.7047 20.4579C69.3128 20.1389 69.1168 19.7105 69.1168 19.1727C69.1168 18.8902 69.249 18.4208 69.5133 17.7645L75.0367 4.17468L75.1871 3.80554C75.6064 2.78471 76.2763 2.27429 77.1969 2.27429C77.5797 2.27429 77.9033 2.4019 78.1676 2.6571C78.441 2.91231 78.5777 3.21765 78.5777 3.57312C78.5777 3.84656 78.5094 4.15645 78.3727 4.50281L78.2223 4.87195L72.9039 17.9559ZM81.9476 13.1981L83.4925 11.4481C84.1761 10.6734 84.8141 10.286 85.4066 10.286C85.8167 10.286 86.1585 10.4227 86.432 10.6962C86.7054 10.9605 86.8421 11.2932 86.8421 11.6942C86.8421 12.2502 86.4821 12.8882 85.762 13.6083L83.4241 15.9188L84.5589 18.5712L84.682 18.8446C84.7822 19.0725 84.8323 19.2958 84.8323 19.5145C84.8323 19.9247 84.6501 20.2984 84.2855 20.6356C83.93 20.9637 83.529 21.1278 83.0823 21.1278C82.5446 21.1278 82.1208 20.7997 81.8109 20.1434L80.9632 18.2841L79.3636 19.9794L79.0765 20.2802C78.5387 20.8453 77.9918 21.1278 77.4359 21.1278C77.0257 21.1278 76.6839 20.9956 76.4105 20.7313C76.1461 20.4579 76.014 20.1206 76.014 19.7196C76.014 19.2183 76.3603 18.6122 77.053 17.9012L79.4866 15.3993L78.4339 12.952C78.2607 12.5419 78.1741 12.2229 78.1741 11.995C78.1741 11.5575 78.3519 11.1656 78.7073 10.8192C79.0719 10.4637 79.4775 10.286 79.9241 10.286C80.471 10.286 80.8994 10.6643 81.2093 11.4208L81.9476 13.1981ZM93.1377 10.286C94.4593 10.286 95.544 10.7053 96.3916 11.5438C97.2484 12.3824 97.6768 13.4488 97.6768 14.743C97.6768 15.7183 97.4535 16.689 97.0069 17.6552C96.5603 18.6122 95.9815 19.3778 95.2705 19.952C94.7966 20.3257 94.3044 20.5855 93.794 20.7313C93.2927 20.868 92.5863 20.9364 91.6748 20.9364C90.1892 20.9364 89.1866 20.7587 88.667 20.4032C87.4457 19.5647 86.835 18.3251 86.835 16.6844C86.835 14.9527 87.4593 13.4533 88.708 12.1864C89.9567 10.9195 91.4333 10.286 93.1377 10.286ZM92.8096 13.1981C92.1351 13.1981 91.5199 13.5308 90.9639 14.1962C90.4079 14.8615 90.1299 15.5953 90.1299 16.3973C90.1299 17.4546 90.7224 17.9833 91.9073 17.9833C92.6 17.9833 93.1332 17.7691 93.5069 17.3407C94.1267 16.6389 94.4366 15.8368 94.4366 14.9344C94.4366 14.4149 94.2862 13.9956 93.9854 13.6766C93.6846 13.3576 93.2927 13.1981 92.8096 13.1981ZM108.812 17.9559H110.453C111.61 17.9559 112.189 18.3615 112.189 19.1727C112.189 19.7287 111.984 20.1617 111.574 20.4716C111.164 20.7815 110.599 20.9364 109.879 20.9364H107.021C106.465 20.9364 105.996 20.7678 105.613 20.4305C105.239 20.0933 105.052 19.6695 105.052 19.1591C105.052 18.8492 105.18 18.3843 105.435 17.7645L106.638 14.7841C106.766 14.4742 106.834 14.2235 106.844 14.0321C106.853 13.8134 106.761 13.6265 106.57 13.4716C106.388 13.3166 106.151 13.2391 105.859 13.2391C104.92 13.2391 104.164 13.9455 103.59 15.3583L101.976 19.3231C101.493 20.5262 100.773 21.1278 99.8162 21.1278C99.4242 21.1278 99.0916 21.0093 98.8181 20.7723C98.5447 20.5354 98.408 20.2437 98.408 19.8973C98.408 19.6421 98.4809 19.3368 98.6267 18.9813L98.7771 18.6122L101.539 11.8036C101.894 10.9195 102.5 10.4774 103.357 10.4774C104.059 10.4774 104.56 10.7873 104.861 11.4071C105.836 10.6597 106.766 10.286 107.65 10.286C108.507 10.286 109.213 10.5321 109.769 11.0243C110.325 11.5165 110.603 12.1408 110.603 12.8973C110.603 13.3166 110.503 13.7769 110.302 14.2782L108.812 17.9559Z" fill="white"/>
<path d="M30.8974 32.0636V25.2236H33.5859C34.0198 25.2236 34.3839 25.3123 34.6784 25.4896C34.9729 25.6669 35.1946 25.8965 35.3434 26.1783C35.4923 26.457 35.5667 26.7515 35.5667 27.0618C35.5667 27.4387 35.4733 27.7617 35.2864 28.0308C35.1028 28.3 34.8542 28.4837 34.5407 28.5818L34.5312 28.3491C34.9682 28.4568 35.3038 28.6673 35.5382 28.9808C35.7725 29.2912 35.8897 29.6538 35.8897 30.0686C35.8897 30.4708 35.8089 30.8207 35.6474 31.1183C35.4891 31.416 35.2563 31.6488 34.9492 31.8166C34.6452 31.9813 34.2763 32.0636 33.8424 32.0636H30.8974ZM31.9044 31.1183H33.6904C33.9153 31.1183 34.1163 31.0756 34.2937 30.9901C34.4742 30.9046 34.6151 30.7827 34.7164 30.6243C34.8209 30.4628 34.8732 30.2713 34.8732 30.0496C34.8732 29.8438 34.8273 29.6585 34.7354 29.4938C34.6468 29.326 34.5169 29.1946 34.3459 29.0996C34.1781 29.0014 33.9802 28.9523 33.7522 28.9523H31.9044V31.1183ZM31.9044 28.0166H33.5717C33.7553 28.0166 33.92 27.9802 34.0657 27.9073C34.2145 27.8313 34.3317 27.7237 34.4172 27.5843C34.5058 27.4418 34.5502 27.2708 34.5502 27.0713C34.5502 26.8053 34.4615 26.5868 34.2842 26.4158C34.1068 26.2448 33.8693 26.1593 33.5717 26.1593H31.9044V28.0166ZM36.9299 32.0636V26.9336H37.8134V28.1781L37.6899 28.0166C37.7533 27.8519 37.8356 27.7015 37.9369 27.5653C38.0383 27.426 38.1554 27.312 38.2884 27.2233C38.4183 27.1283 38.5623 27.0555 38.7207 27.0048C38.8822 26.951 39.0468 26.9193 39.2147 26.9098C39.3825 26.8972 39.544 26.9051 39.6992 26.9336V27.8646C39.5313 27.8203 39.3445 27.8076 39.1387 27.8266C38.936 27.8456 38.7492 27.9105 38.5782 28.0213C38.4167 28.1258 38.2884 28.2525 38.1934 28.4013C38.1016 28.5502 38.0351 28.7164 37.9939 28.9001C37.9528 29.0806 37.9322 29.2722 37.9322 29.4748V32.0636H36.9299ZM40.7937 26.0928V25.1286H41.7865V26.0928H40.7937ZM40.7937 32.0636V26.9336H41.7865V32.0636H40.7937ZM45.4217 34.4861C45.1462 34.4861 44.8786 34.4433 44.6189 34.3578C44.3624 34.2723 44.1281 34.1457 43.9159 33.9778C43.7037 33.8132 43.528 33.6089 43.3887 33.3651L44.3054 32.8996C44.4162 33.1181 44.5746 33.278 44.7804 33.3793C44.9862 33.4807 45.2032 33.5313 45.4312 33.5313C45.713 33.5313 45.9537 33.4807 46.1532 33.3793C46.3527 33.2812 46.5031 33.1323 46.6044 32.9328C46.7089 32.7333 46.7596 32.4863 46.7564 32.1918V30.7573H46.8752V26.9336H47.7539V32.2013C47.7539 32.3375 47.7492 32.4673 47.7397 32.5908C47.7302 32.7143 47.7127 32.8378 47.6874 32.9613C47.6146 33.3065 47.4752 33.5915 47.2694 33.8163C47.0667 34.0412 46.8071 34.209 46.4904 34.3198C46.1769 34.4307 45.8207 34.4861 45.4217 34.4861ZM45.3457 32.2061C44.8675 32.2061 44.4542 32.0873 44.1059 31.8498C43.7607 31.6123 43.4932 31.2893 43.3032 30.8808C43.1163 30.4692 43.0229 30.0068 43.0229 29.4938C43.0229 28.9777 43.1179 28.5169 43.3079 28.1116C43.4979 27.7031 43.7671 27.3817 44.1154 27.1473C44.4669 26.9098 44.8833 26.7911 45.3647 26.7911C45.8492 26.7911 46.2561 26.9098 46.5854 27.1473C46.9179 27.3817 47.1681 27.7031 47.3359 28.1116C47.5069 28.5201 47.5924 28.9808 47.5924 29.4938C47.5924 30.0068 47.5069 30.4676 47.3359 30.8761C47.1649 31.2846 46.9132 31.6092 46.5807 31.8498C46.2482 32.0873 45.8365 32.2061 45.3457 32.2061ZM45.4834 31.3083C45.8096 31.3083 46.0756 31.2308 46.2814 31.0756C46.4872 30.9204 46.6377 30.7067 46.7327 30.4343C46.8277 30.162 46.8752 29.8485 46.8752 29.4938C46.8752 29.1392 46.8261 28.8257 46.7279 28.5533C46.6329 28.281 46.4841 28.0688 46.2814 27.9168C46.0819 27.7648 45.827 27.6888 45.5167 27.6888C45.1873 27.6888 44.9166 27.7696 44.7044 27.9311C44.4922 28.0926 44.3339 28.3095 44.2294 28.5818C44.1281 28.8542 44.0774 29.1582 44.0774 29.4938C44.0774 29.8327 44.1281 30.1398 44.2294 30.4153C44.3339 30.6877 44.4891 30.9046 44.6949 31.0661C44.9039 31.2276 45.1667 31.3083 45.4834 31.3083ZM52.7832 32.0636V29.5413C52.7832 29.3418 52.7658 29.1376 52.7309 28.9286C52.6993 28.7164 52.6359 28.5201 52.5409 28.3396C52.4491 28.1591 52.3177 28.0134 52.1467 27.9026C51.9789 27.7918 51.7588 27.7363 51.4864 27.7363C51.3091 27.7363 51.1413 27.7664 50.9829 27.8266C50.8246 27.8836 50.6853 27.977 50.5649 28.1068C50.4478 28.2367 50.3544 28.4077 50.2847 28.6198C50.2182 28.832 50.1849 29.0901 50.1849 29.3941L49.5674 29.1613C49.5674 28.6958 49.6545 28.2858 49.8287 27.9311C50.0029 27.5733 50.253 27.2946 50.5792 27.0951C50.9054 26.8956 51.2996 26.7958 51.7619 26.7958C52.1166 26.7958 52.4143 26.8528 52.6549 26.9668C52.8956 27.0808 53.0904 27.2313 53.2392 27.4181C53.3912 27.6018 53.5068 27.8028 53.5859 28.0213C53.6651 28.2398 53.7189 28.4536 53.7474 28.6626C53.7759 28.8716 53.7902 29.0553 53.7902 29.2136V32.0636H52.7832ZM49.1779 32.0636V25.2236H50.0662V28.9143H50.1849V32.0636H49.1779ZM58.0579 32.0636C57.7349 32.1269 57.4183 32.1538 57.1079 32.1443C56.7976 32.1348 56.5205 32.0747 56.2767 31.9638C56.0328 31.853 55.8492 31.6788 55.7257 31.4413C55.6148 31.2292 55.5547 31.0138 55.5452 30.7953C55.5388 30.5737 55.5357 30.3235 55.5357 30.0448V25.5086H56.5332V29.9973C56.5332 30.2032 56.5348 30.3821 56.5379 30.5341C56.5443 30.6861 56.5775 30.8143 56.6377 30.9188C56.7517 31.1152 56.9322 31.2276 57.1792 31.2561C57.4293 31.2814 57.7223 31.2703 58.0579 31.2228V32.0636ZM54.5524 27.7316V26.9336H58.0579V27.7316H54.5524ZM62.8796 32.0636V29.2373L60.5664 25.2236H61.7254L63.3831 28.0973L65.0409 25.2236H66.1999L63.8866 29.2373V32.0636H62.8796ZM68.4247 32.2061C67.9117 32.2061 67.4668 32.0905 67.09 31.8593C66.7131 31.6282 66.4218 31.3099 66.216 30.9046C66.0133 30.4961 65.912 30.0258 65.912 29.4938C65.912 28.9587 66.0165 28.4884 66.2255 28.0831C66.4345 27.6746 66.7274 27.3579 67.1042 27.1331C67.4811 26.9051 67.9212 26.7911 68.4247 26.7911C68.9377 26.7911 69.3826 26.9067 69.7595 27.1378C70.1363 27.369 70.4276 27.6873 70.6335 28.0926C70.8393 28.4979 70.9422 28.965 70.9422 29.4938C70.9422 30.029 70.8377 30.5008 70.6287 30.9093C70.4229 31.3147 70.1316 31.6329 69.7547 31.8641C69.3779 32.0921 68.9346 32.2061 68.4247 32.2061ZM68.4247 31.2703C68.9156 31.2703 69.2813 31.1057 69.522 30.7763C69.7658 30.4438 69.8877 30.0163 69.8877 29.4938C69.8877 28.9587 69.7642 28.5312 69.5172 28.2113C69.2734 27.8883 68.9092 27.7268 68.4247 27.7268C68.0922 27.7268 67.8183 27.8028 67.603 27.9548C67.3876 28.1037 67.2277 28.3111 67.1232 28.5771C67.0187 28.8399 66.9665 29.1455 66.9665 29.4938C66.9665 30.0322 67.09 30.4628 67.337 30.7858C67.584 31.1088 67.9466 31.2703 68.4247 31.2703ZM74.0143 32.2013C73.6596 32.2013 73.362 32.1443 73.1213 32.0303C72.8806 31.9163 72.6843 31.7675 72.5323 31.5838C72.3835 31.397 72.2695 31.1943 72.1903 30.9758C72.1111 30.7573 72.0573 30.5436 72.0288 30.3346C72.0003 30.1256 71.986 29.9419 71.986 29.7836V26.9336H72.993V29.4558C72.993 29.6553 73.0089 29.8612 73.0405 30.0733C73.0754 30.2823 73.1387 30.4771 73.2305 30.6576C73.3255 30.8381 73.457 30.9838 73.6248 31.0946C73.7958 31.2054 74.0175 31.2608 74.2898 31.2608C74.4671 31.2608 74.635 31.2323 74.7933 31.1753C74.9516 31.1152 75.0894 31.0202 75.2065 30.8903C75.3269 30.7605 75.4203 30.5895 75.4868 30.3773C75.5565 30.1652 75.5913 29.9071 75.5913 29.6031L76.2088 29.8358C76.2088 30.3013 76.1217 30.713 75.9475 31.0708C75.7734 31.4255 75.5232 31.7026 75.197 31.9021C74.8709 32.1016 74.4766 32.2013 74.0143 32.2013ZM75.71 32.0636V30.5816H75.5913V26.9336H76.5935V32.0636H75.71ZM78.0208 32.0636V26.9336H78.9043V28.1781L78.7808 28.0166C78.8441 27.8519 78.9264 27.7015 79.0278 27.5653C79.1291 27.426 79.2463 27.312 79.3793 27.2233C79.5091 27.1283 79.6532 27.0555 79.8115 27.0048C79.973 26.951 80.1377 26.9193 80.3055 26.9098C80.4733 26.8972 80.6348 26.9051 80.79 26.9336V27.8646C80.6222 27.8203 80.4353 27.8076 80.2295 27.8266C80.0268 27.8456 79.84 27.9105 79.669 28.0213C79.5075 28.1258 79.3793 28.2525 79.2843 28.4013C79.1924 28.5502 79.1259 28.7164 79.0848 28.9001C79.0436 29.0806 79.023 29.2722 79.023 29.4748V32.0636H78.0208ZM83.7864 32.0636V25.2236H87.8382V26.2163H84.7792V28.1448H87.2682V29.1423H84.7792V32.0636H83.7864ZM90.7224 32.2013C90.3677 32.2013 90.0701 32.1443 89.8294 32.0303C89.5887 31.9163 89.3924 31.7675 89.2404 31.5838C89.0916 31.397 88.9776 31.1943 88.8984 30.9758C88.8192 30.7573 88.7654 30.5436 88.7369 30.3346C88.7084 30.1256 88.6942 29.9419 88.6942 29.7836V26.9336H89.7012V29.4558C89.7012 29.6553 89.717 29.8612 89.7487 30.0733C89.7835 30.2823 89.8468 30.4771 89.9387 30.6576C90.0337 30.8381 90.1651 30.9838 90.3329 31.0946C90.5039 31.2054 90.7256 31.2608 90.9979 31.2608C91.1752 31.2608 91.3431 31.2323 91.5014 31.1753C91.6597 31.1152 91.7975 31.0202 91.9147 30.8903C92.035 30.7605 92.1284 30.5895 92.1949 30.3773C92.2646 30.1652 92.2994 29.9071 92.2994 29.6031L92.9169 29.8358C92.9169 30.3013 92.8298 30.713 92.6557 31.0708C92.4815 31.4255 92.2313 31.7026 91.9052 31.9021C91.579 32.1016 91.1847 32.2013 90.7224 32.2013ZM92.4182 32.0636V30.5816H92.2994V26.9336H93.3017V32.0636H92.4182ZM97.6644 32.0636C97.3414 32.1269 97.0247 32.1538 96.7144 32.1443C96.4041 32.1348 96.127 32.0747 95.8831 31.9638C95.6393 31.853 95.4556 31.6788 95.3321 31.4413C95.2213 31.2292 95.1611 31.0138 95.1516 30.7953C95.1453 30.5737 95.1421 30.3235 95.1421 30.0448V25.5086H96.1396V29.9973C96.1396 30.2032 96.1412 30.3821 96.1444 30.5341C96.1507 30.6861 96.184 30.8143 96.2441 30.9188C96.3581 31.1152 96.5386 31.2276 96.7856 31.2561C97.0358 31.2814 97.3287 31.2703 97.6644 31.2228V32.0636ZM94.1589 27.7316V26.9336H97.6644V27.7316H94.1589ZM100.774 32.2013C100.42 32.2013 100.122 32.1443 99.8812 32.0303C99.6406 31.9163 99.4442 31.7675 99.2922 31.5838C99.1434 31.397 99.0294 31.1943 98.9502 30.9758C98.8711 30.7573 98.8172 30.5436 98.7887 30.3346C98.7602 30.1256 98.746 29.9419 98.746 29.7836V26.9336H99.753V29.4558C99.753 29.6553 99.7688 29.8612 99.8005 30.0733C99.8353 30.2823 99.8986 30.4771 99.9905 30.6576C100.085 30.8381 100.217 30.9838 100.385 31.0946C100.556 31.2054 100.777 31.2608 101.05 31.2608C101.227 31.2608 101.395 31.2323 101.553 31.1753C101.712 31.1152 101.849 31.0202 101.966 30.8903C102.087 30.7605 102.18 30.5895 102.247 30.3773C102.316 30.1652 102.351 29.9071 102.351 29.6031L102.969 29.8358C102.969 30.3013 102.882 30.713 102.707 31.0708C102.533 31.4255 102.283 31.7026 101.957 31.9021C101.631 32.1016 101.237 32.2013 100.774 32.2013ZM102.47 32.0636V30.5816H102.351V26.9336H103.353V32.0636H102.47ZM104.781 32.0636V26.9336H105.664V28.1781L105.541 28.0166C105.604 27.8519 105.686 27.7015 105.788 27.5653C105.889 27.426 106.006 27.312 106.139 27.2233C106.269 27.1283 106.413 27.0555 106.571 27.0048C106.733 26.951 106.898 26.9193 107.065 26.9098C107.233 26.8972 107.395 26.9051 107.55 26.9336V27.8646C107.382 27.8203 107.195 27.8076 106.989 27.8266C106.787 27.8456 106.6 27.9105 106.429 28.0213C106.267 28.1258 106.139 28.2525 106.044 28.4013C105.952 28.5502 105.886 28.7164 105.845 28.9001C105.804 29.0806 105.783 29.2722 105.783 29.4748V32.0636H104.781ZM110.732 32.2061C110.222 32.2061 109.774 32.0953 109.388 31.8736C109.005 31.6488 108.705 31.3368 108.49 30.9378C108.278 30.5357 108.172 30.0702 108.172 29.5413C108.172 28.9808 108.276 28.4948 108.485 28.0831C108.697 27.6714 108.992 27.3532 109.369 27.1283C109.746 26.9035 110.184 26.7911 110.685 26.7911C111.207 26.7911 111.652 26.913 112.019 27.1568C112.387 27.3975 112.661 27.7411 112.841 28.1876C113.025 28.6341 113.098 29.1645 113.06 29.7788H112.067V29.4178C112.06 28.8225 111.946 28.3823 111.725 28.0973C111.506 27.8123 111.172 27.6698 110.723 27.6698C110.225 27.6698 109.852 27.8266 109.602 28.1401C109.351 28.4536 109.226 28.9064 109.226 29.4986C109.226 30.0623 109.351 30.4993 109.602 30.8096C109.852 31.1168 110.213 31.2703 110.685 31.2703C110.995 31.2703 111.262 31.2007 111.487 31.0613C111.715 30.9188 111.893 30.7162 112.019 30.4533L112.993 30.7621C112.794 31.2213 112.491 31.5775 112.086 31.8308C111.68 32.081 111.229 32.2061 110.732 32.2061ZM108.903 29.7788V29.0046H112.566V29.7788H108.903Z" fill="white" fill-opacity="0.6"/>
</svg>
