<svg width="31" height="30" viewBox="0 0 31 30" fill="none" xmlns="http://www.w3.org/2000/svg">
<path d="M15.5 17.5C16.8807 17.5 18 16.3807 18 15C18 13.6193 16.8807 12.5 15.5 12.5C14.1193 12.5 13 13.6193 13 15C13 16.3807 14.1193 17.5 15.5 17.5Z" fill="#82A9CD" stroke="#82A9CD" stroke-width="1.5" stroke-linecap="round" stroke-linejoin="round"/>
<path d="M20.7993 9.70001C21.4966 10.3966 22.0498 11.2237 22.4272 12.1342C22.8047 13.0447 22.9989 14.0206 22.9989 15.0063C22.9989 15.9919 22.8047 16.9678 22.4272 17.8783C22.0498 18.7888 21.4966 19.616 20.7993 20.3125M10.1993 20.3C9.50196 19.6035 8.94877 18.7763 8.57134 17.8658C8.1939 16.9553 7.99963 15.9794 7.99963 14.9938C7.99963 14.0081 8.1939 13.0322 8.57134 12.1217C8.94877 11.2112 9.50196 10.3841 10.1993 9.68751M24.3368 6.16251C26.6802 8.5066 27.9966 11.6855 27.9966 15C27.9966 18.3146 26.6802 21.4934 24.3368 23.8375M6.66178 23.8375C4.3184 21.4934 3.00195 18.3146 3.00195 15C3.00195 11.6855 4.3184 8.5066 6.66178 6.16251" stroke="#33608A" stroke-width="2" stroke-linecap="round" stroke-linejoin="round"/>
</svg>
