<svg width="30" height="32" viewBox="0 0 30 32" fill="none" xmlns="http://www.w3.org/2000/svg">
<path d="M14.5999 25.8039V24.4936H15.9489V25.8039H14.5999ZM14.5999 23.4802V16.5092H15.9489V23.4802H14.5999Z" fill="#33608A"/>
<path d="M24.8345 4.39216H4.41682C2.8059 4.39216 1.5 4.81354 1.5 5.33334V11.9216C1.5 12.4414 2.8059 12.8628 4.41682 12.8628H24.8345C26.4455 12.8628 28.2774 12.8192 28.2774 12.2994L27.7514 5.33334C27.7514 4.81354 26.4455 4.39216 24.8345 4.39216Z" fill="#82A9CD"/>
<path d="M25.5239 3.99998H4.69781C3.05468 3.99998 1.72266 5.34313 1.72266 6.99998V28C1.72266 29.6569 3.05468 31 4.69781 31H25.5239C27.167 31 28.499 29.6569 28.499 28V6.99998C28.499 5.34313 27.167 3.99998 25.5239 3.99998Z" stroke="#33608A" stroke-width="1.5" stroke-linecap="round" stroke-linejoin="round"/>
<path d="M21.0625 1V7" stroke="#33608A" stroke-width="1.5" stroke-linecap="round" stroke-linejoin="round"/>
<path d="M9.16211 1V7" stroke="#33608A" stroke-width="1.5" stroke-linecap="round" stroke-linejoin="round"/>
<path d="M1.72266 13H28.499" stroke="#33608A" stroke-width="1.5" stroke-linecap="round" stroke-linejoin="round"/>
</svg>
