<svg width="31" height="32" viewBox="0 0 31 32" fill="none" xmlns="http://www.w3.org/2000/svg">
<path d="M22.0531 0.962952H6.45313C5.65748 0.962952 4.89441 1.27902 4.3318 1.84163C3.7692 2.40424 3.45313 3.1673 3.45312 3.96295V27.963C3.45313 28.7586 3.7692 29.5217 4.3318 30.0843C4.89441 30.6469 5.65748 30.963 6.45313 30.963H24.4531C25.2488 30.963 26.0118 30.6469 26.5744 30.0843C27.1371 29.5217 27.4531 28.7586 27.4531 27.963V6.36295L22.0531 0.962952Z" stroke="#33608A" stroke-width="1.5" stroke-linecap="round" stroke-linejoin="round"/>
<path d="M21.748 1.49704V7.50422H27.5482" fill="#82A9CD"/>
<path d="M22.498 1.49704C22.498 1.08283 22.1623 0.74704 21.748 0.74704C21.3338 0.74704 20.998 1.08283 20.998 1.49704H22.498ZM21.748 7.50422H20.998C20.998 7.91844 21.3338 8.25422 21.748 8.25422V7.50422ZM20.998 1.49704V7.50422H22.498V1.49704H20.998ZM21.748 8.25422H27.5482V6.75422H21.748V8.25422Z" fill="#33608A"/>
<path d="M22.9412 18.0955H8.25391" stroke="#33608A" stroke-width="1.5" stroke-linecap="round" stroke-linejoin="round"/>
<path d="M22.9412 22.3462H8.25391" stroke="#33608A" stroke-width="1.5" stroke-linecap="round" stroke-linejoin="round"/>
<path d="M22.9412 26.4303H8.25391" stroke="#33608A" stroke-width="1.5" stroke-linecap="round" stroke-linejoin="round"/>
<path d="M9.42685 14.2923H7.44957L10.4624 5.56502H12.8402L15.8487 14.2923H13.8714L11.6854 7.55934H11.6172L9.42685 14.2923ZM9.30327 10.8619H13.9737V12.3022H9.30327V10.8619Z" fill="#82A9CD"/>
<path d="M19.3077 14.2797V9.2513H20.579V14.2797H19.3077ZM17.4292 12.4012V11.1299H22.4576V12.4012H17.4292Z" fill="#82A9CD"/>
</svg>
