<svg width="24" height="32" viewBox="0 0 24 32" fill="none" xmlns="http://www.w3.org/2000/svg">
<path d="M14.7235 30.963H3.67752C2.94513 30.963 2.24272 30.672 1.72484 30.1541C1.20696 29.6363 0.916016 28.9339 0.916016 28.2015V6.10941C0.916016 5.37702 1.20696 4.67462 1.72484 4.15674C2.24272 3.63885 2.94513 3.34791 3.67752 3.34791H20.2466C20.979 3.34791 21.6814 3.63885 22.1992 4.15674C22.7171 4.67462 23.0081 5.37702 23.0081 6.10941V22.6784L14.7235 30.963Z" stroke="#33608A" stroke-width="1.5" stroke-linecap="round" stroke-linejoin="round"/>
<path d="M14.7227 30.2179V22.6784H22.2769" fill="#82A9CD"/>
<path d="M14.7227 30.2179V22.6784H22.2769" stroke="#33608A" stroke-width="1.5" stroke-linejoin="round"/>
<path d="M17.4855 15.3981H6.43945" stroke="#33608A" stroke-width="1.5" stroke-linecap="round" stroke-linejoin="round"/>
<path d="M17.4855 11.6325H6.43945" stroke="#33608A" stroke-width="1.5" stroke-linecap="round" stroke-linejoin="round"/>
<path d="M9.20096 19.1638H7.82021H6.43945" fill="#82A9CD"/>
<path d="M9.20096 19.1638H7.82021H6.43945" stroke="#33608A" stroke-width="1.5" stroke-linecap="round" stroke-linejoin="round"/>
<path d="M4.68164 0.962968L4.68164 5.4818" stroke="#33608A" stroke-width="1.5" stroke-linecap="round" stroke-linejoin="round"/>
<path d="M8.32227 0.962968L8.32227 5.4818" stroke="#33608A" stroke-width="1.5" stroke-linecap="round" stroke-linejoin="round"/>
<path d="M11.9629 0.962968L11.9629 5.4818" stroke="#33608A" stroke-width="1.5" stroke-linecap="round" stroke-linejoin="round"/>
<path d="M15.6016 0.962968L15.6016 5.4818" stroke="#33608A" stroke-width="1.5" stroke-linecap="round" stroke-linejoin="round"/>
<path d="M19.2422 0.962968L19.2422 5.4818" stroke="#33608A" stroke-width="1.5" stroke-linecap="round" stroke-linejoin="round"/>
</svg>
