<svg width="126" height="98" viewBox="0 0 126 98" fill="none" xmlns="http://www.w3.org/2000/svg">
<path fill-rule="evenodd" clip-rule="evenodd" d="M42.902 36.2389C57.2059 43.9883 93.4712 39.0488 104.134 50.3842C114.654 61.5685 122.772 74.4336 124.907 88.0587C127.003 101.431 122.751 114.208 115.906 125.497C109.302 136.39 98.0094 143.644 86.7131 151.057C73.82 159.517 61.5951 168.619 45.3135 171.819C24.7843 175.855 -1.99095 185.572 -18.125 171.665C-35.4724 156.712 -18.8715 132.958 -22.8972 113.024C-25.4775 100.247 -4.87752 82.1838 -9.61764 69.663C-18.3681 46.549 -74.4403 28.3359 -62.5474 8.29003C-51.7341 -9.93603 -38.2472 7.70972 -13.1414 10.8261C7.52934 13.3919 24.5833 26.3144 42.902 36.2389Z" fill="#E6B239"/>
</svg>
