<svg width="41" height="41" viewBox="0 0 41 41" fill="none" xmlns="http://www.w3.org/2000/svg">
<rect x="1" y="1" width="38" height="38" rx="19" stroke="white" stroke-opacity="0.5" stroke-width="1.5"/>
<path d="M28 29V27C28 25.9391 27.5786 24.9217 26.8284 24.1716C26.0783 23.4214 25.0609 23 24 23H16C14.9391 23 13.9217 23.4214 13.1716 24.1716C12.4214 24.9217 12 25.9391 12 27V29" stroke="white" stroke-width="1.5" stroke-linecap="round" stroke-linejoin="round"/>
<path d="M20 19C22.2091 19 24 17.2091 24 15C24 12.7909 22.2091 11 20 11C17.7909 11 16 12.7909 16 15C16 17.2091 17.7909 19 20 19Z" stroke="white" stroke-width="1.5" stroke-linecap="round" stroke-linejoin="round"/>
<circle cx="32" cy="32" r="8" transform="rotate(90 32 32)" fill="#0B2035" stroke="#567087" stroke-width="0.43956"/>
<path d="M29.0911 30.9766L31.6671 33.7376C31.8508 33.9344 32.1485 33.9344 32.3321 33.7376L34.9082 30.9766" stroke="white" stroke-linecap="round" stroke-linejoin="round"/>
</svg>
