<svg width="37" height="37" viewBox="0 0 37 37" fill="none" xmlns="http://www.w3.org/2000/svg">
<path d="M15.4166 3.08334H27.7499C28.5677 3.08334 29.3519 3.40819 29.9302 3.98643C30.5084 4.56467 30.8333 5.34893 30.8333 6.16668V30.8333C30.8333 31.6511 30.5084 32.4354 29.9302 33.0136C29.3519 33.5918 28.5677 33.9167 27.7499 33.9167H9.24992C8.43217 33.9167 7.64791 33.5918 7.06967 33.0136C6.49143 32.4354 6.16658 31.6511 6.16658 30.8333V12.3333L15.4166 3.08334Z" stroke="black" stroke-width="2.3125" stroke-linecap="round" stroke-linejoin="round"/>
<path d="M15.4167 3.08334V12.3333H6.16675" stroke="black" stroke-width="2.3125" stroke-linecap="round" stroke-linejoin="round"/>
<path d="M12.3334 20.0417H24.6667" stroke="black" stroke-width="2.3125" stroke-linecap="round" stroke-linejoin="round"/>
<path d="M12.3334 26.2083H24.6667" stroke="black" stroke-width="2.3125" stroke-linecap="round" stroke-linejoin="round"/>
<path d="M21.5834 13.875H23.1251H24.6667" stroke="black" stroke-width="2.3125" stroke-linecap="round" stroke-linejoin="round"/>
<rect x="20.5142" y="9.59677" width="16.1875" height="9.25" rx="2.15833" fill="#E51111"/>
<path d="M24.1294 15.9093V12.0243H25.6645C25.7023 12.0243 25.7473 12.0261 25.7994 12.0297C25.8516 12.0315 25.9019 12.0369 25.9505 12.0459C26.1609 12.0782 26.3372 12.1502 26.4793 12.2617C26.6232 12.3732 26.7311 12.5144 26.8031 12.6853C26.875 12.8543 26.911 13.0423 26.911 13.2491C26.911 13.4542 26.8741 13.6421 26.8004 13.813C26.7284 13.9821 26.6205 14.1233 26.4766 14.2366C26.3345 14.3481 26.1592 14.42 25.9505 14.4524C25.9019 14.4596 25.8516 14.465 25.7994 14.4686C25.7473 14.4722 25.7023 14.474 25.6645 14.474H24.6096V15.9093H24.1294ZM24.6096 14.018H25.6483C25.6825 14.018 25.7212 14.0162 25.7644 14.0126C25.8093 14.009 25.8516 14.0027 25.8912 13.9938C26.0153 13.965 26.116 13.9128 26.1933 13.8373C26.2725 13.7599 26.33 13.67 26.366 13.5675C26.402 13.4632 26.4199 13.357 26.4199 13.2491C26.4199 13.1412 26.402 13.036 26.366 12.9335C26.33 12.8291 26.2725 12.7383 26.1933 12.661C26.116 12.5836 26.0153 12.5315 25.8912 12.5045C25.8516 12.4937 25.8093 12.4874 25.7644 12.4856C25.7212 12.482 25.6825 12.4802 25.6483 12.4802H24.6096V14.018ZM27.4491 15.9093V12.0243H28.647C28.6866 12.0243 28.7558 12.0252 28.8547 12.027C28.9537 12.0288 29.0481 12.036 29.138 12.0486C29.4384 12.0881 29.6893 12.1978 29.8907 12.3777C30.094 12.5558 30.2469 12.7824 30.3494 13.0576C30.4519 13.3328 30.5032 13.6358 30.5032 13.9668C30.5032 14.2977 30.4519 14.6008 30.3494 14.876C30.2469 15.1512 30.094 15.3787 29.8907 15.5585C29.6893 15.7366 29.4384 15.8454 29.138 15.885C29.0481 15.8958 28.9528 15.903 28.852 15.9066C28.7531 15.9084 28.6848 15.9093 28.647 15.9093H27.4491ZM27.9428 15.4506H28.647C28.7153 15.4506 28.7918 15.4488 28.8763 15.4452C28.9609 15.4398 29.0346 15.4317 29.0975 15.4209C29.3098 15.3814 29.4816 15.2923 29.6128 15.1539C29.7441 15.0154 29.8404 14.8427 29.9015 14.6359C29.9627 14.429 29.9933 14.206 29.9933 13.9668C29.9933 13.7222 29.9618 13.4964 29.8988 13.2896C29.8377 13.0828 29.7414 12.911 29.6102 12.7743C29.4789 12.6376 29.308 12.5504 29.0975 12.5126C29.0346 12.5 28.96 12.4919 28.8736 12.4883C28.7873 12.4847 28.7117 12.4829 28.647 12.4829H27.9428V15.4506ZM31.1219 15.9093V12.0243H33.3881V12.5045H31.6021V13.7267H33.0644V14.2069H31.6021V15.9093H31.1219Z" fill="white"/>
</svg>
