<svg width="20" height="20" viewBox="0 0 20 20" fill="none" xmlns="http://www.w3.org/2000/svg">
<g clip-path="url(#clip0_1327_20787)">
<path d="M19.8217 7.415L12.6311 0.188124C12.4761 0.0324991 12.253 -0.0306259 12.0386 0.0218741C11.8255 0.0737491 11.6555 0.233749 11.5905 0.443124C11.158 1.83562 11.1073 3.09625 11.438 4.24562C11.4073 4.26687 11.3786 4.28937 11.3517 4.31625L8.00984 7.6575C6.93172 7.1575 5.77297 6.88687 4.61734 6.88687C3.88297 6.88687 3.16297 6.99562 2.47734 7.20875C2.26859 7.27375 2.10859 7.44312 2.05609 7.655C2.00359 7.86687 2.06484 8.09125 2.21922 8.24687L6.49609 12.5512L0.516094 18.6262L-0.00390625 19.9962L1.25297 19.5106L7.37359 13.4356L11.7061 17.7962C11.8242 17.9162 11.9855 17.9806 12.1492 17.9806C12.1986 17.9806 12.2486 17.9744 12.298 17.9625C12.5111 17.91 12.6811 17.75 12.7461 17.5406C13.3117 15.72 13.1461 13.7644 12.3486 12.0106L15.7605 8.59812C15.773 8.58562 15.7811 8.5725 15.7923 8.55875C16.3073 8.70625 16.8411 8.78437 17.3948 8.78437C18.083 8.78437 18.8123 8.68562 19.5623 8.4525C19.7711 8.3875 19.9311 8.21812 19.9836 8.00625C20.0361 7.79437 19.9742 7.57062 19.8198 7.41562L19.8217 7.415ZM11.7811 16.0969L3.91422 8.17875C5.93297 7.94312 8.11047 8.75687 9.68672 10.3331C11.2555 11.9012 12.0211 14.07 11.7811 16.0969ZM11.7236 10.87C11.3948 10.3675 11.0111 9.89 10.5705 9.44875C10.1317 9.01 9.65234 8.62312 9.14547 8.29L11.9605 5.47562C12.2473 5.975 12.618 6.4525 13.0742 6.9075C13.5398 7.37312 14.033 7.75 14.5511 8.04125L11.7236 10.87ZM13.958 6.02437C12.7561 4.8225 12.293 3.4825 12.5386 1.86625L18.1423 7.49875C16.528 7.73 15.1811 7.24687 13.958 6.02375V6.02437Z" fill="#2F2E36"/>
</g>
<defs>
<clipPath id="clip0_1327_20787">
<rect width="20" height="20" fill="white"/>
</clipPath>
</defs>
</svg>
