<svg width="88" height="69" viewBox="0 0 88 69" fill="none" xmlns="http://www.w3.org/2000/svg">
<path d="M86.1305 48.9801C89.8531 41.6244 82.7088 37.8797 82.7088 37.8797L76.7278 52.6713C76.7278 52.6713 82.7354 55.6888 86.1305 48.9801Z" fill="white" stroke="black" stroke-width="0.319344"/>
<path fill-rule="evenodd" clip-rule="evenodd" d="M28.5138 8.26166L25.2431 9.93181C25.1508 9.97891 25.1283 10.0962 25.1984 10.1644L30.3286 15.1512C30.4427 15.2628 30.3035 15.4522 30.1527 15.3898L18.5535 10.5966C18.4392 10.5498 18.4397 10.3933 18.5536 10.3351L22.3325 8.40552C22.4294 8.35599 22.4482 8.23001 22.3684 8.1649L17.1894 3.9377C17.1097 3.87259 17.1287 3.7471 17.2257 3.69757L21.6191 1.45411C21.6787 1.42369 21.749 1.4326 21.7939 1.47629L28.5585 8.02904C28.6285 8.09723 28.606 8.21456 28.5138 8.26166Z" fill="#FFCE0C" stroke="#131E21" stroke-width="0.319344" stroke-linecap="round" stroke-linejoin="round"/>
<path fill-rule="evenodd" clip-rule="evenodd" d="M13.95 22.5614L11.3605 25.1656C11.2875 25.239 11.3026 25.3575 11.3904 25.4006L17.8166 28.5453C17.9599 28.616 17.8864 28.8392 17.7236 28.8268L5.20915 27.8771C5.08595 27.8681 5.03776 27.7192 5.12791 27.6285L8.11966 24.6198C8.19644 24.5425 8.17509 24.417 8.07904 24.3799L1.84254 21.9722C1.74649 21.9351 1.72552 21.8099 1.80231 21.7327L5.28065 18.2345C5.32781 18.1871 5.39743 18.1737 5.45369 18.2013L13.9202 22.3264C14.0079 22.3694 14.023 22.4879 13.95 22.5614Z" fill="#FFCE0C" stroke="#131E21" stroke-width="0.319344" stroke-linecap="round" stroke-linejoin="round"/>
<path fill-rule="evenodd" clip-rule="evenodd" d="M17.4085 51.9067L14.6863 49.4416C14.6095 49.3721 14.6184 49.2529 14.7038 49.2054L20.9566 45.7285C21.0959 45.6505 21.0109 45.4313 20.849 45.4523L8.40138 47.0558C8.27882 47.0712 8.23849 47.2225 8.33325 47.3083L11.4784 50.1563C11.5591 50.2294 11.5444 50.3559 11.4504 50.398L5.34849 53.1289C5.25451 53.1709 5.24013 53.297 5.32086 53.3701L8.97755 56.6814C9.02713 56.7263 9.09736 56.736 9.15209 56.7056L17.391 52.1429C17.4764 52.0953 17.4853 51.9762 17.4085 51.9067Z" fill="#FFCE0C" stroke="#131E21" stroke-width="0.319344" stroke-linecap="round" stroke-linejoin="round"/>
<path d="M66.0038 68.0001C68.1549 66.544 72.8078 61.3087 74.2109 52.0161L68.6182 50.7255C67.482 49.2363 65.375 46.9793 66.0369 49.8651C66.6988 52.7508 60.2965 59.0757 57.0126 61.8774L63.1407 67.5615L66.0038 68.0001Z" fill="white"/>
<path d="M68.6182 50.7255C67.5371 53.2957 64.1705 59.2304 59.3521 62.4073M68.6182 50.7255L74.2109 52.0161C72.8078 61.3087 68.1549 66.544 66.0038 68.0001M68.6182 50.7255C67.482 49.2363 65.375 46.9793 66.0369 49.8651C66.6988 52.7508 60.2965 59.0757 57.0126 61.8774M59.3521 62.4073L66.0038 68.0001M59.3521 62.4073L57.0126 61.8774M66.0038 68.0001L63.1407 67.5615L57.0126 61.8774" stroke="black" stroke-width="0.319344"/>
<path d="M80.9994 35.8566L75.1189 33.1315C75.1189 33.1315 67.6477 28.7513 62.8428 24.338C57.6036 19.5259 50.9878 10.5359 50.9878 10.5359L33.275 54.4515C33.275 54.4515 43.4877 51.7157 50.6885 51.0363C58.0552 50.3413 68.3421 51.992 68.3421 51.992L74.0791 53.6773C74.0791 53.6773 81.3226 54.4661 83.7245 45.8964C85.8136 38.4432 80.9994 35.8566 80.9994 35.8566Z" fill="#FF504B"/>
<path d="M75.1189 33.1315L80.9994 35.8566C80.9994 35.8566 85.8136 38.4432 83.7245 45.8964C81.3226 54.4661 74.0791 53.6773 74.0791 53.6773L68.3421 51.992M75.1189 33.1315C75.1189 33.1315 78.0955 38.2231 75.5855 44.247C73.0756 50.2709 68.3421 51.992 68.3421 51.992M75.1189 33.1315C75.1189 33.1315 67.6477 28.7513 62.8428 24.338C57.6036 19.5259 50.9878 10.5359 50.9878 10.5359L33.275 54.4515C33.275 54.4515 43.4877 51.7157 50.6885 51.0363C58.0552 50.3413 68.3421 51.992 68.3421 51.992" stroke="black" stroke-width="0.319344"/>
<path d="M75.5856 44.247C78.0955 38.2231 75.119 33.1315 75.119 33.1315C75.119 33.1315 67.6478 28.7513 62.8428 24.338C57.6037 19.5259 50.9879 10.5359 50.9879 10.5359L33.2751 54.4515C33.2751 54.4515 43.4877 51.7157 50.6886 51.0363C58.0553 50.3413 68.3421 51.992 68.3421 51.992C68.3421 51.992 73.0756 50.2709 75.5856 44.247Z" fill="white" stroke="black" stroke-width="0.319344"/>
<path d="M31.4663 29.1835L31.4662 29.1835L31.468 29.179C34.1216 22.4971 37.2233 17.0313 40.2489 13.329C41.7615 11.4781 43.2595 10.0626 44.6779 9.15724C46.0949 8.25283 47.4484 7.8479 48.6633 8.04924L48.6922 8.05404L48.7175 8.06879C50.4797 9.09501 51.5023 10.8958 52.0209 13.0932C52.5393 15.2899 52.5588 17.9005 52.3016 20.5788C51.787 25.9364 50.1605 31.6064 49.1448 34.8675L49.1451 34.8675L49.1417 34.8764C48.2292 37.292 45.7578 42.4806 42.6023 46.908C41.0247 49.1214 39.2705 51.1527 37.4483 52.5514C35.6281 53.9486 33.7174 54.7313 31.837 54.3994C30.8528 54.2257 30.0496 53.3589 29.4693 52.0151C28.8863 50.6651 28.5104 48.796 28.4011 46.5375C28.1822 42.0182 29.0292 35.9056 31.4663 29.1835Z" fill="#FF504B" stroke="black" stroke-width="0.319344"/>
<path d="M32.7921 29.409L32.7921 29.409L32.7939 29.4045C35.157 23.4541 37.8286 18.5854 40.4331 15.2867C41.7351 13.6377 43.0249 12.3751 44.2565 11.567C45.487 10.7596 46.6746 10.3964 47.7628 10.5768L47.7917 10.5816L47.817 10.5963C49.3931 11.5142 50.2685 13.1082 50.6747 15.0452C51.0806 16.9806 51.0224 19.2756 50.7183 21.6289C50.1384 26.1162 48.6582 30.8575 47.7388 33.8025C47.6938 33.9466 47.6502 34.0865 47.608 34.2218L47.6083 34.2219L47.605 34.2307C46.7934 36.379 44.7423 41.0659 42.0807 45.0762C40.7502 47.0808 39.2616 48.9248 37.6927 50.1974C36.1253 51.4687 34.4551 52.1872 32.7717 51.8901C31.8842 51.7335 31.1886 50.952 30.7054 49.7526C30.2197 48.5472 29.9308 46.8801 29.8791 44.8679C29.7757 40.8412 30.6215 35.396 32.7921 29.409Z" fill="white" stroke="black" stroke-width="0.319344"/>
<path d="M49.2363 28.8533C49.2363 28.8533 46.744 27.9035 45.0067 27.5698C43.2694 27.2361 41.8494 29.4547 41.0828 31.4767C40.2999 33.5417 40.252 36.3009 41.4921 37.1169C41.4921 37.1169 41.5372 37.1432 41.6196 37.1755L45.4385 38.9305C45.4385 38.9305 46.7864 36.0649 47.5079 34.1708C48.2853 32.1303 49.2363 28.8533 49.2363 28.8533Z" fill="#FF504B"/>
<path d="M45.0067 27.5698C46.744 27.9035 49.2363 28.8533 49.2363 28.8533C49.2363 28.8533 48.2853 32.1303 47.5079 34.1708C46.7864 36.0649 45.4385 38.9305 45.4385 38.9305L41.4921 37.1169M45.0067 27.5698C43.2694 27.2361 41.8494 29.4547 41.0828 31.4767C40.2999 33.5417 40.252 36.3009 41.4921 37.1169M45.0067 27.5698C45.0067 27.5698 47.6574 28.2985 45.6244 33.6882C43.8194 38.4734 41.4921 37.1169 41.4921 37.1169" stroke="black" stroke-width="0.319344"/>
</svg>
