<svg width="31" height="32" viewBox="0 0 31 32" fill="none" xmlns="http://www.w3.org/2000/svg">
<path d="M25.3345 4.28104H4.91682C3.3059 4.28104 2 4.70242 2 5.22221V11.8105C2 12.3303 3.3059 12.7516 4.91682 12.7516H25.3345C26.9455 12.7516 28.2514 12.3303 28.2514 11.8105V5.22221C28.2514 4.70242 26.9455 4.28104 25.3345 4.28104Z" fill="#82A9CD"/>
<path d="M26.0239 3.88885H5.19781C3.55468 3.88885 2.22266 5.232 2.22266 6.88886V27.8889C2.22266 29.5457 3.55468 30.8889 5.19781 30.8889H26.0239C27.667 30.8889 28.999 29.5457 28.999 27.8889V6.88886C28.999 5.232 27.667 3.88885 26.0239 3.88885Z" stroke="#33608A" stroke-width="1.5" stroke-linecap="round" stroke-linejoin="round"/>
<path d="M21.5625 0.888885V6.88889" stroke="#33608A" stroke-width="1.5" stroke-linecap="round" stroke-linejoin="round"/>
<path d="M9.66211 0.888885V6.88889" stroke="#33608A" stroke-width="1.5" stroke-linecap="round" stroke-linejoin="round"/>
<path d="M2.22266 12.8889H28.999" stroke="#33608A" stroke-width="1.5" stroke-linecap="round" stroke-linejoin="round"/>
<g clip-path="url(#clip0_1327_21438)">
<path d="M15.5 26.8889C18.2614 26.8889 20.5 24.6503 20.5 21.8889C20.5 19.1275 18.2614 16.8889 15.5 16.8889C12.7386 16.8889 10.5 19.1275 10.5 21.8889C10.5 24.6503 12.7386 26.8889 15.5 26.8889Z" stroke="#33608A" stroke-width="1.25" stroke-linecap="round" stroke-linejoin="round"/>
<path d="M15.5 18.8889V21.8889L17.5 22.8889" stroke="#33608A" stroke-width="1.25" stroke-linecap="round" stroke-linejoin="round"/>
</g>
<defs>
<clipPath id="clip0_1327_21438">
<rect width="12" height="12" fill="white" transform="translate(9.5 15.8889)"/>
</clipPath>
</defs>
</svg>
