<svg width="254" height="25" viewBox="0 0 254 25" fill="none" xmlns="http://www.w3.org/2000/svg">
<path d="M9.378 23.882C8.286 23.882 7.206 23.816 6.138 23.684C5.082 23.564 4.116 23.36 3.24 23.072C2.364 22.784 1.662 22.394 1.134 21.902C0.618 21.41 0.36 20.798 0.36 20.066C0.36 19.322 0.528 18.746 0.864 18.338C1.2 17.918 1.65 17.63 2.214 17.474C2.778 17.306 3.39 17.222 4.05 17.222C4.206 17.222 4.434 17.258 4.734 17.33C5.046 17.402 5.4 17.48 5.796 17.564C6.192 17.648 6.606 17.69 7.038 17.69C7.662 17.69 8.214 17.666 8.694 17.618C9.174 17.57 9.582 17.486 9.918 17.366C10.254 17.234 10.506 17.048 10.674 16.808C10.854 16.568 10.944 16.262 10.944 15.89C10.944 15.578 10.848 15.302 10.656 15.062C10.476 14.822 10.218 14.6 9.882 14.396C9.546 14.18 9.15 13.982 8.694 13.802C8.25 13.622 7.758 13.43 7.218 13.226C6.402 12.938 5.628 12.602 4.896 12.218C4.176 11.834 3.54 11.396 2.988 10.904C2.436 10.412 1.998 9.854 1.674 9.23C1.362 8.594 1.206 7.892 1.206 7.124C1.206 6.164 1.44 5.318 1.908 4.586C2.388 3.854 3.03 3.23 3.834 2.714C4.638 2.198 5.544 1.784 6.552 1.472C7.56 1.148 8.598 0.913999 9.666 0.77C10.734 0.625999 11.76 0.553998 12.744 0.553998C13.668 0.553998 14.55 0.607999 15.39 0.715999C16.242 0.823999 17.01 1.004 17.694 1.256C18.378 1.496 18.918 1.814 19.314 2.21C19.71 2.594 19.908 3.068 19.908 3.632C19.908 4.28 19.752 4.808 19.44 5.216C19.14 5.612 18.744 5.906 18.252 6.098C17.76 6.29 17.238 6.386 16.686 6.386C16.434 6.386 16.176 6.344 15.912 6.26C15.648 6.176 15.348 6.092 15.012 6.008C14.688 5.924 14.28 5.882 13.788 5.882C13.452 5.882 13.122 5.906 12.798 5.954C12.486 6.002 12.204 6.08 11.952 6.188C11.7 6.296 11.496 6.452 11.34 6.656C11.196 6.848 11.124 7.094 11.124 7.394C11.124 7.718 11.22 8.012 11.412 8.276C11.604 8.54 11.868 8.78 12.204 8.996C12.54 9.212 12.936 9.422 13.392 9.626C13.86 9.818 14.37 10.022 14.922 10.238C15.678 10.526 16.428 10.88 17.172 11.3C17.928 11.72 18.612 12.212 19.224 12.776C19.836 13.328 20.322 13.964 20.682 14.684C21.054 15.404 21.24 16.208 21.24 17.096C21.24 18.308 20.916 19.346 20.268 20.21C19.62 21.074 18.738 21.776 17.622 22.316C16.506 22.856 15.24 23.252 13.824 23.504C12.408 23.756 10.926 23.882 9.378 23.882ZM34.956 24.278C33.312 24.278 31.812 24.056 30.456 23.612C29.1 23.18 27.93 22.538 26.946 21.686C25.962 20.834 25.2 19.79 24.66 18.554C24.12 17.318 23.85 15.902 23.85 14.306C23.85 12.41 24.144 10.688 24.732 9.14C25.32 7.592 26.166 6.26 27.27 5.144C28.374 4.028 29.706 3.17 31.266 2.57C32.826 1.97 34.584 1.67 36.54 1.67C37.428 1.67 38.274 1.76 39.078 1.94C39.882 2.12 40.59 2.378 41.202 2.714C41.826 3.05 42.312 3.452 42.66 3.92C43.02 4.388 43.2 4.916 43.2 5.504C43.2 6.332 42.996 6.968 42.588 7.412C42.192 7.844 41.646 8.06 40.95 8.06C40.566 8.06 40.224 8.024 39.924 7.952C39.624 7.88 39.318 7.802 39.006 7.718C38.694 7.622 38.346 7.538 37.962 7.466C37.59 7.394 37.14 7.358 36.612 7.358C36.096 7.358 35.61 7.478 35.154 7.718C34.71 7.958 34.314 8.312 33.966 8.78C33.618 9.236 33.342 9.794 33.138 10.454C32.946 11.114 32.85 11.87 32.85 12.722C32.85 13.394 32.916 14.03 33.048 14.63C33.192 15.218 33.414 15.74 33.714 16.196C34.026 16.64 34.434 16.994 34.938 17.258C35.442 17.522 36.066 17.654 36.81 17.654C37.278 17.654 37.716 17.588 38.124 17.456C38.532 17.324 38.922 17.168 39.294 16.988C39.666 16.808 40.032 16.652 40.392 16.52C40.752 16.376 41.124 16.304 41.508 16.304C42.636 16.304 43.404 16.562 43.812 17.078C44.22 17.594 44.424 18.284 44.424 19.148C44.424 19.988 44.172 20.732 43.668 21.38C43.176 22.016 42.492 22.55 41.616 22.982C40.74 23.402 39.732 23.72 38.592 23.936C37.452 24.164 36.24 24.278 34.956 24.278ZM66.9884 23.63C66.0764 23.63 65.4224 23.504 65.0264 23.252C64.6304 23 64.3544 22.592 64.1984 22.028C64.1624 21.776 64.1324 21.506 64.1084 21.218C64.0844 20.93 64.0664 20.636 64.0544 20.336C64.0544 20.036 64.0484 19.742 64.0364 19.454C64.0244 19.166 64.0124 18.896 64.0004 18.644C64.0004 18.38 64.0004 18.146 64.0004 17.942C63.9764 17.354 63.9164 16.88 63.8204 16.52C63.7244 16.16 63.5504 15.902 63.2984 15.746C63.0104 15.554 62.6384 15.416 62.1824 15.332C61.7264 15.248 61.0244 15.206 60.0764 15.206C59.5724 15.206 59.1524 15.218 58.8164 15.242C58.4804 15.254 58.1984 15.284 57.9704 15.332C57.7424 15.368 57.5444 15.416 57.3764 15.476C57.2204 15.536 57.0764 15.602 56.9444 15.674C56.7884 15.758 56.6384 15.878 56.4944 16.034C56.3504 16.178 56.2364 16.376 56.1524 16.628C56.0924 16.772 56.0384 16.94 55.9904 17.132C55.9424 17.324 55.8944 17.534 55.8464 17.762C55.8104 17.978 55.7744 18.224 55.7384 18.5C55.7024 18.776 55.6664 19.076 55.6304 19.4C55.5944 19.724 55.5584 20.078 55.5224 20.462C55.4144 21.194 55.2224 21.77 54.9464 22.19C54.6824 22.61 54.3104 22.904 53.8304 23.072C53.3504 23.252 52.7504 23.342 52.0304 23.342C50.9504 23.342 50.0984 23.03 49.4744 22.406C48.8624 21.77 48.4004 20.96 48.0884 19.976C47.9564 19.52 47.8424 19.016 47.7464 18.464C47.6624 17.9 47.5904 17.312 47.5304 16.7C47.4824 16.076 47.4464 15.458 47.4224 14.846C47.3984 14.234 47.3864 13.646 47.3864 13.082C47.3864 12.35 47.3984 11.636 47.4224 10.94C47.4584 10.244 47.5004 9.572 47.5484 8.924C47.6084 8.276 47.6804 7.652 47.7644 7.052C47.8604 6.452 47.9744 5.888 48.1064 5.36C48.3464 4.412 48.6584 3.59 49.0424 2.894C49.4384 2.198 49.9304 1.664 50.5184 1.292C51.1064 0.907999 51.8024 0.715999 52.6064 0.715999C53.5304 0.715999 54.2264 0.907999 54.6944 1.292C55.1744 1.664 55.5224 2.24 55.7384 3.02C55.7744 3.248 55.8164 3.488 55.8644 3.74C55.9124 3.992 55.9604 4.25 56.0084 4.514C56.0564 4.778 56.0984 5.036 56.1344 5.288C56.1704 5.528 56.2064 5.75 56.2424 5.954C56.2904 6.146 56.3324 6.308 56.3684 6.44C56.4764 6.872 56.5964 7.244 56.7284 7.556C56.8604 7.868 57.0524 8.102 57.3044 8.258C57.6044 8.426 57.9944 8.546 58.4744 8.618C58.9544 8.69 59.4764 8.726 60.0404 8.726C60.5564 8.726 61.0184 8.72 61.4264 8.708C61.8464 8.696 62.2064 8.66 62.5064 8.6C62.8064 8.528 63.0584 8.426 63.2624 8.294C63.4784 8.138 63.6584 7.904 63.8024 7.592C63.9584 7.28 64.0724 6.8 64.1444 6.152C64.1804 5.852 64.2164 5.54 64.2524 5.216C64.2884 4.892 64.3304 4.562 64.3784 4.226C64.4384 3.89 64.5044 3.554 64.5764 3.218C64.6484 2.87 64.7444 2.522 64.8644 2.174C65.0804 1.55 65.4104 1.076 65.8544 0.751999C66.3104 0.427999 66.8804 0.266 67.5644 0.266C68.5964 0.266 69.4004 0.529999 69.9764 1.058C70.5644 1.586 71.0084 2.36 71.3084 3.38C71.4404 3.8 71.5544 4.286 71.6504 4.838C71.7584 5.378 71.8424 5.978 71.9024 6.638C71.9744 7.298 72.0284 7.994 72.0644 8.726C72.1004 9.458 72.1184 10.208 72.1184 10.976C72.1184 11.636 72.1004 12.308 72.0644 12.992C72.0404 13.664 71.9984 14.33 71.9384 14.99C71.8784 15.638 71.8064 16.262 71.7224 16.862C71.6504 17.462 71.5604 18.032 71.4524 18.572C71.3564 19.1 71.2484 19.586 71.1284 20.03C70.8044 21.194 70.2884 22.088 69.5804 22.712C68.8844 23.324 68.0204 23.63 66.9884 23.63ZM86.852 24.908C85.124 24.908 83.522 24.668 82.046 24.188C80.57 23.708 79.286 23.006 78.194 22.082C77.102 21.146 76.25 20.012 75.638 18.68C75.038 17.348 74.738 15.83 74.738 14.126C74.738 12.47 74.984 10.976 75.476 9.644C75.98 8.3 76.682 7.124 77.582 6.116C78.482 5.108 79.526 4.262 80.714 3.578C81.914 2.894 83.216 2.384 84.62 2.048C86.024 1.7 87.476 1.526 88.976 1.526C90.812 1.526 92.528 1.778 94.124 2.282C95.732 2.786 97.148 3.524 98.372 4.496C99.596 5.456 100.55 6.62 101.234 7.988C101.93 9.356 102.278 10.904 102.278 12.632C102.278 14.54 101.864 16.256 101.036 17.78C100.208 19.292 99.068 20.582 97.616 21.65C96.176 22.706 94.532 23.51 92.684 24.062C90.836 24.626 88.892 24.908 86.852 24.908ZM88.382 16.718C89.69 16.718 90.734 16.508 91.514 16.088C92.306 15.656 92.882 15.098 93.242 14.414C93.602 13.73 93.782 13.016 93.782 12.272C93.782 11.564 93.656 10.922 93.404 10.346C93.152 9.758 92.804 9.26 92.36 8.852C91.916 8.432 91.394 8.108 90.794 7.88C90.206 7.652 89.57 7.538 88.886 7.538C88.238 7.538 87.614 7.64 87.014 7.844C86.414 8.036 85.88 8.318 85.412 8.69C84.944 9.05 84.572 9.494 84.296 10.022C84.02 10.538 83.882 11.114 83.882 11.75C83.882 12.446 83.99 13.094 84.206 13.694C84.434 14.294 84.746 14.822 85.142 15.278C85.55 15.722 86.03 16.076 86.582 16.34C87.134 16.592 87.734 16.718 88.382 16.718ZM116.743 24.908C115.015 24.908 113.413 24.668 111.937 24.188C110.461 23.708 109.177 23.006 108.085 22.082C106.993 21.146 106.141 20.012 105.529 18.68C104.929 17.348 104.629 15.83 104.629 14.126C104.629 12.47 104.875 10.976 105.367 9.644C105.871 8.3 106.573 7.124 107.473 6.116C108.373 5.108 109.417 4.262 110.605 3.578C111.805 2.894 113.107 2.384 114.511 2.048C115.915 1.7 117.367 1.526 118.867 1.526C120.703 1.526 122.419 1.778 124.015 2.282C125.623 2.786 127.039 3.524 128.263 4.496C129.487 5.456 130.441 6.62 131.125 7.988C131.821 9.356 132.169 10.904 132.169 12.632C132.169 14.54 131.755 16.256 130.927 17.78C130.099 19.292 128.959 20.582 127.507 21.65C126.067 22.706 124.423 23.51 122.575 24.062C120.727 24.626 118.783 24.908 116.743 24.908ZM118.273 16.718C119.581 16.718 120.625 16.508 121.405 16.088C122.197 15.656 122.773 15.098 123.133 14.414C123.493 13.73 123.673 13.016 123.673 12.272C123.673 11.564 123.547 10.922 123.295 10.346C123.043 9.758 122.695 9.26 122.251 8.852C121.807 8.432 121.285 8.108 120.685 7.88C120.097 7.652 119.461 7.538 118.777 7.538C118.129 7.538 117.505 7.64 116.905 7.844C116.305 8.036 115.771 8.318 115.303 8.69C114.835 9.05 114.463 9.494 114.187 10.022C113.911 10.538 113.773 11.114 113.773 11.75C113.773 12.446 113.881 13.094 114.097 13.694C114.325 14.294 114.637 14.822 115.033 15.278C115.441 15.722 115.921 16.076 116.473 16.34C117.025 16.592 117.625 16.718 118.273 16.718ZM140.28 24.008C138.24 23.636 136.83 22.808 136.05 21.524C135.27 20.228 134.88 18.482 134.88 16.286C134.88 15.77 134.898 15.194 134.934 14.558C134.982 13.91 135.036 13.244 135.096 12.56C135.156 11.876 135.228 11.198 135.312 10.526C135.396 9.842 135.486 9.206 135.582 8.618C135.678 8.03 135.768 7.514 135.852 7.07C136.248 5.21 136.86 3.758 137.688 2.714C138.516 1.658 139.614 1.13 140.982 1.13C141.918 1.13 142.608 1.31 143.052 1.67C143.508 2.03 143.802 2.534 143.934 3.182C144.078 3.818 144.15 4.562 144.15 5.414C144.15 5.738 144.144 6.086 144.132 6.458C144.132 6.818 144.126 7.196 144.114 7.592C144.114 7.988 144.108 8.39 144.096 8.798C144.096 9.206 144.096 9.608 144.096 10.004C144.108 10.4 144.114 10.79 144.114 11.174C144.126 11.546 144.15 11.906 144.186 12.254C144.222 12.866 144.294 13.394 144.402 13.838C144.522 14.27 144.696 14.63 144.924 14.918C145.152 15.206 145.458 15.422 145.842 15.566C146.226 15.71 146.712 15.794 147.3 15.818C148.308 15.914 149.25 16.022 150.126 16.142C151.014 16.25 151.734 16.352 152.286 16.448C152.73 16.472 153.162 16.532 153.582 16.628C154.002 16.724 154.344 16.862 154.608 17.042C154.86 17.234 155.046 17.48 155.166 17.78C155.298 18.08 155.364 18.476 155.364 18.968C155.364 19.808 155.142 20.522 154.698 21.11C154.266 21.698 153.696 22.19 152.988 22.586C152.292 22.97 151.53 23.288 150.702 23.54C149.934 23.756 149.004 23.93 147.912 24.062C146.82 24.194 145.728 24.26 144.636 24.26C144.12 24.26 143.598 24.254 143.07 24.242C142.542 24.242 142.038 24.218 141.558 24.17C141.078 24.134 140.652 24.08 140.28 24.008ZM173.336 23.864C172.58 23.864 171.908 23.72 171.32 23.432C170.744 23.156 170.294 22.754 169.97 22.226C169.646 21.698 169.484 21.068 169.484 20.336C169.484 19.568 169.604 18.92 169.844 18.392C170.084 17.852 170.438 17.36 170.906 16.916C171.122 16.688 171.392 16.436 171.716 16.16C172.052 15.872 172.418 15.572 172.814 15.26C173.222 14.948 173.636 14.648 174.056 14.36C174.488 14.072 174.908 13.814 175.316 13.586C175.988 13.286 176.498 13.01 176.846 12.758C177.194 12.494 177.368 12.218 177.368 11.93C177.368 11.69 177.254 11.48 177.026 11.3C176.798 11.108 176.396 10.892 175.82 10.652C175.472 10.472 175.1 10.274 174.704 10.058C174.308 9.83 173.906 9.596 173.498 9.356C173.102 9.104 172.712 8.852 172.328 8.6C171.944 8.348 171.584 8.102 171.248 7.862C170.756 7.538 170.36 7.112 170.06 6.584C169.772 6.044 169.628 5.426 169.628 4.73C169.628 3.782 169.832 3.026 170.24 2.462C170.66 1.898 171.17 1.496 171.77 1.256C172.382 1.004 172.976 0.877998 173.552 0.877998C174.368 0.877998 175.052 0.991999 175.604 1.22C176.156 1.436 176.726 1.832 177.314 2.408C177.758 2.828 178.184 3.284 178.592 3.776C179.012 4.268 179.414 4.772 179.798 5.288C180.182 5.804 180.536 6.32 180.86 6.836C181.16 7.352 181.412 7.73 181.616 7.97C181.832 8.198 182.078 8.312 182.354 8.312C182.606 8.312 182.822 8.204 183.002 7.988C183.182 7.772 183.35 7.55 183.506 7.322C183.686 7.046 183.89 6.728 184.118 6.368C184.358 5.996 184.61 5.606 184.874 5.198C185.138 4.778 185.408 4.37 185.684 3.974C185.96 3.578 186.224 3.212 186.476 2.876C187.016 2.18 187.634 1.67 188.33 1.346C189.038 1.01 189.776 0.841999 190.544 0.841999C191.864 0.841999 192.788 1.142 193.316 1.742C193.856 2.33 194.126 3.092 194.126 4.028C194.126 4.532 193.994 5.078 193.73 5.666C193.478 6.242 193.07 6.83 192.506 7.43C192.134 7.838 191.726 8.258 191.282 8.69C190.85 9.11 190.406 9.506 189.95 9.878C189.506 10.25 189.086 10.58 188.69 10.868C188.114 11.204 187.718 11.474 187.502 11.678C187.286 11.882 187.178 12.068 187.178 12.236C187.178 12.38 187.274 12.536 187.466 12.704C187.67 12.86 187.928 13.022 188.24 13.19C189.248 13.766 190.124 14.324 190.868 14.864C191.612 15.392 192.26 15.926 192.812 16.466C193.376 17.006 193.874 17.57 194.306 18.158C194.534 18.458 194.702 18.806 194.81 19.202C194.93 19.586 194.99 19.946 194.99 20.282C194.99 20.906 194.786 21.47 194.378 21.974C193.97 22.466 193.454 22.85 192.83 23.126C192.218 23.414 191.582 23.558 190.922 23.558C190.154 23.558 189.5 23.456 188.96 23.252C188.432 23.048 187.988 22.778 187.628 22.442C187.388 22.19 187.118 21.878 186.818 21.506C186.53 21.122 186.23 20.72 185.918 20.3C185.618 19.88 185.33 19.478 185.054 19.094C184.778 18.698 184.538 18.356 184.334 18.068C183.974 17.516 183.656 17.144 183.38 16.952C183.116 16.76 182.846 16.664 182.57 16.664C182.294 16.664 182 16.79 181.688 17.042C181.388 17.282 181.004 17.756 180.536 18.464C180.212 18.884 179.9 19.286 179.6 19.67C179.3 20.054 179 20.426 178.7 20.786C178.412 21.146 178.106 21.5 177.782 21.848C177.458 22.196 177.104 22.544 176.72 22.892C176.36 23.156 175.928 23.384 175.424 23.576C174.92 23.768 174.224 23.864 173.336 23.864ZM208.992 24.908C207.264 24.908 205.662 24.668 204.186 24.188C202.71 23.708 201.426 23.006 200.334 22.082C199.242 21.146 198.39 20.012 197.778 18.68C197.178 17.348 196.878 15.83 196.878 14.126C196.878 12.47 197.124 10.976 197.616 9.644C198.12 8.3 198.822 7.124 199.722 6.116C200.622 5.108 201.666 4.262 202.854 3.578C204.054 2.894 205.356 2.384 206.76 2.048C208.164 1.7 209.616 1.526 211.116 1.526C212.952 1.526 214.668 1.778 216.264 2.282C217.872 2.786 219.288 3.524 220.512 4.496C221.736 5.456 222.69 6.62 223.374 7.988C224.07 9.356 224.418 10.904 224.418 12.632C224.418 14.54 224.004 16.256 223.176 17.78C222.348 19.292 221.208 20.582 219.756 21.65C218.316 22.706 216.672 23.51 214.824 24.062C212.976 24.626 211.032 24.908 208.992 24.908ZM210.522 16.718C211.83 16.718 212.874 16.508 213.654 16.088C214.446 15.656 215.022 15.098 215.382 14.414C215.742 13.73 215.922 13.016 215.922 12.272C215.922 11.564 215.796 10.922 215.544 10.346C215.292 9.758 214.944 9.26 214.5 8.852C214.056 8.432 213.534 8.108 212.934 7.88C212.346 7.652 211.71 7.538 211.026 7.538C210.378 7.538 209.754 7.64 209.154 7.844C208.554 8.036 208.02 8.318 207.552 8.69C207.084 9.05 206.712 9.494 206.436 10.022C206.16 10.538 206.022 11.114 206.022 11.75C206.022 12.446 206.13 13.094 206.346 13.694C206.574 14.294 206.886 14.822 207.282 15.278C207.69 15.722 208.17 16.076 208.722 16.34C209.274 16.592 209.874 16.718 210.522 16.718ZM231.809 23.864C231.017 23.864 230.363 23.702 229.847 23.378C229.331 23.066 228.899 22.634 228.551 22.082C228.371 21.782 228.209 21.386 228.065 20.894C227.921 20.402 227.795 19.844 227.687 19.22C227.591 18.596 227.507 17.942 227.435 17.258C227.363 16.574 227.303 15.896 227.255 15.224C227.219 14.54 227.189 13.898 227.165 13.298C227.141 12.698 227.129 12.176 227.129 11.732C227.129 9.704 227.279 7.964 227.579 6.512C227.879 5.048 228.413 3.926 229.181 3.146C229.949 2.366 231.041 1.976 232.457 1.976C233.321 1.976 234.089 2.156 234.761 2.516C235.433 2.864 236.135 3.416 236.867 4.172C237.599 4.928 238.475 5.906 239.495 7.106C240.659 8.57 241.673 9.734 242.537 10.598C243.413 11.462 244.079 11.894 244.535 11.894C244.739 11.894 244.907 11.864 245.039 11.804C245.171 11.732 245.279 11.606 245.363 11.426C245.447 11.234 245.519 10.958 245.579 10.598C245.603 10.43 245.633 10.19 245.669 9.878C245.705 9.554 245.735 9.194 245.759 8.798C245.795 8.402 245.831 7.994 245.867 7.574C245.903 7.142 245.939 6.728 245.975 6.332C246.011 5.936 246.053 5.582 246.101 5.27C246.149 4.958 246.197 4.724 246.245 4.568C246.533 3.716 246.953 3.11 247.505 2.75C248.057 2.39 248.825 2.21 249.809 2.21C250.577 2.21 251.219 2.336 251.735 2.588C252.251 2.84 252.665 3.212 252.977 3.704C253.301 4.196 253.535 4.796 253.679 5.504C253.823 6.212 253.895 7.028 253.895 7.952C253.907 8.396 253.901 8.924 253.877 9.536C253.865 10.136 253.841 10.784 253.805 11.48C253.781 12.164 253.739 12.866 253.679 13.586C253.631 14.306 253.565 15.008 253.481 15.692C253.409 16.376 253.319 17.024 253.211 17.636C253.103 18.236 252.977 18.764 252.833 19.22C252.545 20.18 252.179 20.972 251.735 21.596C251.303 22.22 250.757 22.688 250.097 23C249.449 23.3 248.657 23.45 247.721 23.45C246.953 23.45 246.161 23.198 245.345 22.694C244.529 22.19 243.695 21.506 242.843 20.642C242.003 19.778 241.145 18.8 240.269 17.708C239.693 16.988 239.189 16.364 238.757 15.836C238.325 15.296 237.953 14.852 237.641 14.504C237.329 14.144 237.059 13.88 236.831 13.712C236.603 13.532 236.411 13.442 236.255 13.442C235.895 13.442 235.637 13.622 235.481 13.982C235.325 14.342 235.247 15.062 235.247 16.142C235.247 16.49 235.247 16.856 235.247 17.24C235.247 17.612 235.247 17.996 235.247 18.392C235.259 18.788 235.259 19.178 235.247 19.562C235.247 19.934 235.235 20.294 235.211 20.642C235.187 20.99 235.157 21.314 235.121 21.614C235.097 21.902 235.055 22.16 234.995 22.388C234.707 22.904 234.293 23.276 233.753 23.504C233.225 23.744 232.577 23.864 231.809 23.864Z" fill="white"/>
</svg>
